<svg width="50" height="47" viewBox="0 0 50 47" fill="none" xmlns="http://www.w3.org/2000/svg">
<path d="M47.819 7.44269L41.1627 1.19248C40.3502 0.428822 39.2627 0 38.1127 0C36.9627 0 35.8752 0.422947 35.0626 1.19248L27.8939 7.91851C27.0814 8.68217 26.6251 9.71016 26.6251 10.791C26.6251 11.8778 27.0751 12.894 27.8939 13.6635L33.4939 18.9328C32.2182 21.7265 30.3852 24.2648 28.0939 26.4107C25.8001 28.5783 23.1188 30.2877 20.1438 31.4978L14.5438 26.2286C13.7313 25.4649 12.6438 25.0361 11.4938 25.0361C10.9266 25.0341 10.3646 25.1386 9.84089 25.3434C9.31716 25.5481 8.84218 25.8491 8.44379 26.2286L1.26876 32.9546C0.456252 33.7183 0 34.7463 0 35.8271C0 36.9139 0.450002 37.9301 1.26876 38.6997L7.91878 44.9499C9.30629 46.254 11.2188 47 13.1813 47C13.5876 47 13.9813 46.9706 14.3813 46.906C22.6563 45.6254 30.8689 41.4841 37.5002 35.2573C44.1252 29.0189 48.5252 21.3001 49.9002 13.5167C50.294 11.308 49.5065 9.03462 47.819 7.44269ZM45.4689 12.8176C44.2502 19.7434 40.2877 26.6515 34.3189 32.2615C28.3501 37.8714 21.0063 41.5957 13.6376 42.7412C12.7126 42.888 11.7626 42.5943 11.0875 41.9658L4.55627 35.8271L11.4813 29.3126L18.9688 36.3617L19.0251 36.4146L20.3751 35.9446C24.4684 34.5301 28.1855 32.296 31.2688 29.3971C34.3521 26.4981 36.7279 23.0037 38.2314 19.156L38.7314 17.8871L31.1814 10.7969L38.1064 4.28234L44.6377 10.4209C45.3127 11.0554 45.6252 11.9483 45.4689 12.8176Z" fill="white"/>
</svg>
