<svg width="866" height="612" viewBox="0 0 866 612" fill="none" xmlns="http://www.w3.org/2000/svg">
<g opacity="0.4">
<path d="M743.348 55.8931C738.702 55.8931 734.057 55.8931 729.768 55.8931C725.48 55.8931 721.192 55.8931 716.904 55.8931C692.604 55.8931 673.306 57.3134 651.865 63.7052C640.787 67.2562 630.067 72.2275 620.061 77.554C603.265 86.0763 587.184 94.2436 567.887 94.2436C564.671 94.2436 561.455 93.8885 558.239 93.5334C544.302 91.4028 533.581 83.2356 523.218 75.4234C511.783 66.546 501.062 58.0236 485.696 58.0236C484.267 58.0236 482.837 58.0236 481.408 58.3787C472.117 59.444 457.108 67.6113 442.456 75.7785C433.165 81.105 424.231 86.0763 418.156 88.2069C409.223 91.4028 402.076 93.1783 397.073 94.2436C382.064 97.7945 380.277 99.2149 372.773 126.557C370.628 134.014 369.199 141.116 367.77 148.218C362.409 173.785 358.479 193.671 330.962 213.201C312.38 225.985 289.152 232.376 259.492 232.376C230.189 232.376 199.456 226.34 172.298 221.013C158.003 218.173 144.781 215.687 134.775 214.622C129.058 213.911 120.124 213.556 110.833 213.556C84.7461 213.556 54.0137 223.144 51.8696 236.638C50.7975 243.029 55.8005 252.972 86.1755 262.56L89.3917 263.625C204.102 300.2 283.792 347.783 365.268 428.035C387.781 450.051 404.934 460.349 419.228 460.349C422.445 460.349 426.018 459.639 428.877 458.573C444.243 452.892 455.321 433.717 468.186 411.701C474.976 400.337 482.48 387.199 491.414 374.77C534.654 314.404 596.476 270.017 665.802 250.486C686.171 244.805 706.183 241.609 725.123 241.609C786.945 241.609 830.542 271.792 871.637 302.686V300.555C830.542 269.662 786.945 240.189 725.123 240.189C706.183 240.189 685.814 243.029 665.445 249.066C595.761 268.951 533.581 313.339 489.984 374.06C481.051 386.489 473.546 399.627 466.756 410.99C453.892 433.006 443.171 451.827 428.52 457.153C425.661 458.218 422.445 458.928 419.228 458.928C405.292 458.928 388.496 448.631 366.698 426.97C285.221 346.363 205.174 298.78 90.1064 261.85L86.8902 260.784C64.377 253.682 52.5843 245.16 54.0137 236.993C55.8005 225.63 82.9593 215.332 111.19 215.332C120.124 215.332 129.058 215.687 134.775 216.397C144.781 217.462 158.003 219.948 172.298 222.789C199.456 228.115 230.546 234.507 259.849 234.507C289.867 234.507 313.809 228.115 332.392 214.977C360.265 195.446 364.553 174.851 369.914 148.929C371.343 142.182 372.773 135.08 374.917 127.623C382.064 100.28 383.493 99.9251 397.787 96.3741C402.79 95.3089 409.58 93.5334 418.871 90.3375C425.304 87.8518 434.237 82.8804 443.529 77.9091C457.108 70.0969 472.831 61.5746 481.765 60.5093C483.195 60.5093 484.624 60.1542 485.696 60.1542C500.348 60.1542 511.068 68.3215 522.146 77.1989C532.509 85.3661 543.23 93.8885 557.881 95.664C561.098 96.0191 564.314 96.3741 567.53 96.3741C587.184 96.3741 603.98 87.8518 620.418 79.6846C630.424 74.7132 640.787 69.3868 651.865 65.8358C672.949 59.444 692.246 58.0236 716.546 58.0236C720.834 58.0236 725.123 58.0236 729.411 58.0236C734.056 58.0236 738.345 58.0236 743.348 58.0236C765.146 58.0236 784.801 60.5093 803.026 65.8358C826.254 72.5826 849.124 81.4601 871.637 92.4681V90.3375C849.124 79.6846 826.253 70.8071 803.383 64.0603C785.158 58.7338 765.504 55.8931 743.348 55.8931Z" fill="#C4C4C4"/>
<path d="M743.347 91.7581C713.33 91.7581 681.168 97.0845 647.577 102.766C609.34 109.158 570.031 115.905 527.863 115.905C525.005 115.905 521.789 115.905 518.93 115.905C504.278 115.55 492.128 113.064 481.05 110.933C471.759 109.158 463.54 107.382 455.678 107.382C437.096 107.382 423.516 116.97 408.508 140.762C401.36 152.125 396 165.973 390.997 179.112C382.063 202.549 372.772 226.695 352.403 241.254C345.256 246.226 331.677 250.132 317.383 254.038C292.368 261.14 264.137 269.307 260.206 285.997C255.56 306.947 298.8 335.71 322.028 351.335C326.316 354.175 330.247 356.661 332.749 358.436C360.265 378.322 382.778 391.816 404.219 391.816C407.078 391.816 409.937 391.461 412.796 391.105C429.949 387.91 445.672 375.836 461.753 353.11C509.639 285.997 578.608 236.993 655.796 214.977C679.381 208.23 702.966 204.679 725.122 204.679C786.944 204.679 832.328 229.536 871.637 256.879V255.458C832.328 228.116 786.944 203.259 725.122 203.259C702.609 203.259 679.381 206.81 655.438 213.557C577.893 235.573 508.924 284.931 461.038 352.045C444.958 374.771 429.591 386.489 412.796 389.685C409.937 390.04 407.078 390.395 404.219 390.395C383.136 390.395 360.622 377.257 333.463 357.371C330.962 355.596 327.388 353.11 322.743 350.269C299.515 335 256.633 306.592 261.278 286.352C264.852 270.372 293.083 262.205 317.74 255.103C332.034 251.197 345.614 247.291 352.761 241.964C373.487 227.405 382.778 202.904 391.712 179.467C396.715 166.329 402.075 152.48 409.222 141.117C423.874 117.68 437.453 108.093 455.321 108.093C463.183 108.093 471.044 109.513 480.335 111.644C491.413 113.774 503.563 116.26 518.215 116.615C521.074 116.615 524.29 116.615 527.149 116.615C569.316 116.615 608.625 109.868 646.862 103.476C680.811 97.7947 712.615 92.4683 742.633 92.4683C761.215 92.4683 777.653 94.5988 792.662 98.86C818.749 106.317 844.478 117.325 871.28 130.819V129.754C844.836 116.615 819.106 105.607 793.019 98.1498C778.725 93.8886 762.287 91.7581 743.347 91.7581Z" fill="#C4C4C4"/>
<path d="M743.347 116.615C715.474 116.615 684.384 121.941 651.507 127.268C612.199 134.015 571.818 140.761 527.863 140.761C524.647 140.761 521.431 140.761 518.215 140.761C515.713 140.761 512.855 140.761 510.353 140.406C503.563 140.051 497.488 140.051 491.413 140.051C453.534 140.051 429.949 147.863 414.225 188.344C404.577 213.911 393.141 243.029 366.697 261.85C359.193 267.176 351.688 271.792 344.899 275.698C329.533 284.931 317.383 292.388 316.668 302.331C316.311 311.563 325.602 322.926 347.4 338.551C368.127 353.82 385.28 360.922 399.574 360.922C401.003 360.922 402.075 360.922 403.505 360.922C424.231 359.146 438.525 341.747 456.036 320.086C464.255 310.143 473.188 299.135 483.909 288.482C530.365 242.319 587.184 208.585 649.006 191.185C675.093 184.083 700.822 180.532 725.48 180.532C786.23 180.532 833.043 202.548 871.994 227.76V226.34C833.043 201.128 786.23 179.467 725.48 179.467C700.822 179.467 675.093 183.373 649.006 190.475C587.184 207.875 530.007 241.609 483.552 288.127C472.831 298.78 463.54 310.143 455.678 319.731C438.168 341.391 424.231 358.081 403.862 360.212C402.79 360.212 401.36 360.212 399.931 360.212C385.637 360.212 368.841 352.755 348.472 337.841C327.031 322.216 317.74 311.563 318.097 302.331C318.455 292.743 330.605 285.641 345.613 276.409C352.403 272.503 359.908 267.886 367.412 262.56C394.213 243.74 405.649 214.267 415.297 188.7C430.663 148.574 453.891 141.116 491.413 141.116C497.488 141.116 503.921 141.116 510.353 141.472C512.855 141.472 515.356 141.472 518.215 141.827C521.431 141.827 524.647 141.827 527.863 141.827C572.175 141.827 612.556 135.08 651.865 128.333C684.741 122.651 715.474 117.68 743.347 117.68C759.428 117.68 773.722 119.456 786.587 123.006C814.46 130.819 842.691 143.602 871.994 158.871V157.806C842.691 142.892 814.46 130.108 786.944 122.296C774.08 118.39 759.785 116.615 743.347 116.615Z" fill="#C4C4C4"/>
<path d="M743.347 141.116C717.618 141.116 687.6 146.088 655.796 151.414C615.772 158.161 573.962 165.263 527.864 165.263C524.647 165.263 521.074 165.263 517.858 165.263L509.996 164.908C503.564 164.908 497.489 164.553 491.771 164.553C441.741 164.553 439.24 191.895 436.739 221.013C435.309 236.993 433.88 253.327 424.946 267.176C421.73 272.147 413.511 278.539 404.577 285.286C385.637 299.49 363.839 315.469 374.202 330.738C378.49 337.13 383.85 340.681 390.283 340.681C393.499 340.681 397.43 339.616 401.003 337.84C417.799 329.318 436.024 303.396 450.318 282.8C458.537 271.082 465.684 261.139 469.615 258.654C473.546 256.168 478.191 255.813 482.122 255.813C483.552 255.813 485.339 255.813 486.768 255.813C488.197 255.813 489.984 255.813 491.413 255.813C497.131 255.813 503.563 255.103 509.281 250.131C516.071 244.095 516.786 235.927 517.858 228.47C518.572 221.724 519.287 214.977 523.933 209.65C537.869 192.961 586.827 181.598 618.988 173.785C628.637 171.655 636.856 169.524 642.931 167.749C671.162 159.582 699.036 155.675 725.837 155.675C785.515 155.675 833.4 175.206 872.352 198.287V196.157C833.4 173.075 785.515 153.545 725.837 153.545C698.678 153.545 670.805 157.806 642.216 165.618C636.141 167.394 627.922 169.169 618.274 171.655C583.611 179.822 536.44 190.83 522.146 207.875C517.143 213.911 516.428 221.013 515.713 227.76C514.999 235.572 514.284 242.674 507.852 248.356C502.849 252.972 496.774 253.682 491.413 253.682C489.984 253.682 488.197 253.682 486.768 253.682C485.339 253.682 483.552 253.682 482.122 253.682C477.834 253.682 473.189 254.037 468.543 256.523C464.255 259.009 457.465 268.951 448.889 281.025C435.309 300.555 416.727 326.832 399.931 335.355C389.925 340.681 382.064 338.551 375.631 328.963C366.34 315.114 387.066 299.845 405.649 285.996C415.297 278.894 423.159 272.858 426.733 267.531C435.666 253.327 437.096 236.638 438.883 220.658C441.384 191.185 443.886 165.973 492.128 165.973C497.846 165.973 503.921 165.973 510.353 166.328L518.215 166.683C521.431 166.683 525.005 166.683 528.221 166.683C574.677 166.683 616.13 159.582 656.511 152.835C688.315 147.508 717.975 142.537 743.705 142.537C757.284 142.537 769.434 143.957 779.797 147.153C808.743 155.675 839.833 170.59 871.994 187.634V185.504C839.833 168.814 809.457 153.9 780.155 145.733C769.434 142.892 757.284 141.116 743.347 141.116Z" fill="#C4C4C4"/>
<path d="M310.95 183.373C298.8 191.895 282.362 196.156 260.206 196.156C234.477 196.156 205.531 190.475 179.802 185.503C164.793 182.663 150.499 179.822 139.064 178.402C133.346 177.691 117.98 176.271 99.3974 176.271C64.7342 176.271 20.065 180.887 5.05621 203.258C-1.37614 212.846 -1.73348 225.274 4.34152 239.478C7.20034 246.225 14.3474 249.776 21.4945 253.327C27.2121 256.168 32.9298 259.009 36.146 263.27C40.0768 268.241 42.2209 275.698 44.365 282.445C47.2239 291.678 50.0827 301.265 56.8724 306.947C65.0915 314.049 74.3827 317.245 85.818 317.245C93.6797 317.245 101.899 315.824 109.761 314.049C117.622 312.628 125.484 310.853 132.989 310.853C140.493 310.853 146.925 312.273 152.643 315.469C166.937 322.571 172.655 332.514 178.73 342.102C186.234 354.53 193.381 366.248 216.967 371.575C265.924 382.938 279.503 395.011 312.022 423.774C316.311 427.325 320.599 431.586 325.602 435.847C337.394 446.145 345.971 457.863 354.19 468.871C361.694 478.814 369.199 489.467 379.205 498.7C391.355 510.418 402.79 515.389 413.868 520.716C428.519 527.462 442.814 533.854 455.321 555.515L457.465 559.066C473.546 586.409 489.627 611.976 499.633 611.976C501.062 611.976 502.491 611.265 503.563 610.2C507.137 606.294 508.209 595.996 506.422 578.596C505.35 568.299 498.203 559.421 491.056 550.544C483.194 540.956 476.047 532.079 476.405 522.136C476.762 510.418 484.266 504.381 491.771 498.344C497.488 493.728 503.206 489.112 506.422 482.01C514.641 464.61 516.428 448.986 518.572 433.717C521.074 412.766 523.575 392.88 542.515 370.509C576.463 330.383 623.991 299.845 676.165 284.931C693.675 279.959 709.756 277.474 725.48 277.474C779.083 277.474 817.319 306.237 858.058 337.13C862.703 340.681 867.349 344.232 871.994 347.428V343.877C867.706 340.681 863.775 337.485 859.487 334.644C818.391 303.751 779.797 274.633 725.48 274.633C709.399 274.633 692.961 277.119 675.45 282.09C622.562 297.004 574.677 327.898 540.371 368.379C521.074 391.46 518.572 411.701 515.713 433.006C513.927 447.921 511.783 463.19 503.921 480.234C500.705 486.981 495.344 491.598 489.984 495.859C482.122 502.25 474.261 508.642 473.546 521.426C473.188 532.434 481.05 542.021 488.555 551.609C495.344 560.131 502.491 569.009 503.563 578.241C505.35 598.837 503.206 605.584 501.419 608.07C500.705 608.78 499.99 609.135 499.275 609.135C489.269 609.135 468.543 572.915 459.252 557.646L457.108 554.095C443.886 531.724 429.591 525.332 414.583 518.585C403.505 513.614 392.427 508.642 380.634 497.279C370.986 488.047 363.124 477.749 355.977 467.806C347.4 456.443 338.824 444.725 327.031 434.427C322.028 430.166 317.74 426.26 313.452 422.354C280.575 393.236 266.996 381.162 217.324 369.799C194.811 364.473 188.021 353.465 180.874 341.391C174.799 331.449 168.724 321.506 154.072 314.049C147.997 310.853 141.208 309.433 133.346 309.433C125.484 309.433 117.265 310.853 109.403 312.628C101.542 314.049 93.6798 315.824 86.1754 315.824C75.4548 315.824 66.8783 312.628 58.6591 306.237C52.5841 300.91 49.7254 292.033 46.8665 282.8C44.7224 275.698 42.2209 268.241 38.29 262.915C34.7165 257.943 28.6415 255.103 22.9239 252.262C16.1342 248.711 9.34445 245.515 6.84298 239.478C1.12533 225.985 1.48273 214.621 7.55773 205.389C21.8518 184.083 65.8062 179.467 100.112 179.467C118.694 179.467 134.061 180.887 139.421 181.597C150.856 182.663 165.15 185.503 180.159 188.699C205.889 193.671 234.834 199.707 260.921 199.707C283.434 199.707 300.587 195.446 313.094 186.569C344.542 164.553 335.25 131.529 326.674 99.5699C317.383 65.4805 307.734 29.9708 346.328 6.88943C350.974 4.04865 357.049 2.62826 364.553 2.62826C387.424 2.62826 419.943 15.0567 451.39 27.13C478.549 37.7829 504.636 47.7256 521.431 48.0807C523.933 48.0807 526.434 48.0807 528.578 48.0807C564.671 48.0807 601.121 42.0441 636.499 36.0074C671.877 29.9708 708.327 23.9341 744.062 23.9341C769.077 23.9341 791.947 26.7749 813.388 33.1666C833.4 38.8482 853.055 46.3052 872.352 54.8276V51.9868C853.055 43.4645 833.758 36.3625 814.103 30.681C792.305 24.6443 769.434 21.4484 744.062 21.4484C707.969 21.4484 671.519 27.4851 636.141 33.5217C601.121 39.5584 564.671 45.5951 528.578 45.5951C526.077 45.5951 523.933 45.5951 521.431 45.5951C504.993 45.24 479.621 35.2972 452.462 24.9994C421.015 12.9261 388.139 0.142578 364.553 0.142578C356.334 0.142578 349.902 1.56297 344.899 4.75884C304.875 28.9055 314.524 65.1254 324.172 100.28C332.392 131.529 340.611 162.422 310.95 183.373Z" fill="#C4C4C4"/>
</g>
</svg>
