<svg width="320" height="251" viewBox="0 0 320 251" fill="none" xmlns="http://www.w3.org/2000/svg">
<path d="M-15.9569 153.267C-16.1429 154.891 -15.3988 154.891 -15.2128 156.516C-15.5848 157.058 -15.9569 157.058 -16.1429 157.599C-17.0729 155.974 -17.4449 153.267 -17.817 150.559C-18.003 151.1 -18.375 152.183 -18.747 153.267C-19.1191 150.559 -19.1191 148.934 -19.3051 146.226C-20.2351 146.226 -21.1652 146.226 -21.9092 146.226C-22.2813 147.309 -22.8393 148.934 -23.3973 150.559C-23.5833 149.475 -23.5833 148.934 -23.7694 147.851C-24.1414 146.226 -24.5134 145.143 -24.8854 143.518C-25.2574 145.143 -25.4435 146.768 -25.6295 148.392C-26.0015 148.392 -26.1875 148.392 -26.5595 148.392C-26.7455 147.309 -26.9316 145.684 -27.1176 144.06C-27.6756 144.06 -28.2336 144.06 -28.6057 143.518C-29.7217 140.81 -30.6518 138.102 -31.5818 135.936C-31.5818 134.853 -31.5818 134.311 -31.5818 133.228C-30.4658 132.145 -29.3497 132.687 -28.2336 132.687C-28.0476 133.228 -27.6756 134.311 -27.3036 135.394C-27.1176 133.228 -27.1176 131.062 -26.9316 128.896C-26.3735 127.271 -25.6295 128.354 -25.0714 128.354C-24.6994 127.812 -24.5134 126.729 -24.3274 126.188C-23.9554 126.729 -23.7694 127.271 -23.3973 128.354C-23.2113 125.646 -23.2113 123.48 -23.0253 121.855C-21.7232 122.938 -21.3512 127.812 -20.0491 128.354C-19.4911 129.979 -19.4911 129.979 -18.561 129.979C-18.561 129.437 -18.375 129.437 -18.375 128.896C-18.375 125.104 -18.375 121.313 -18.375 118.064C-18.747 116.981 -18.933 116.439 -19.1191 115.356C-19.1191 113.731 -19.1191 112.107 -18.375 112.107C-17.631 112.107 -16.7009 115.898 -15.7708 120.772C-15.3988 120.772 -15.0268 121.313 -14.6548 121.855C-14.4688 121.855 -14.4688 122.397 -14.4688 122.397C-14.4688 123.48 -14.4688 124.021 -14.4688 124.563C-14.0967 125.646 -13.7247 126.729 -13.3527 127.812C-12.4226 126.729 -12.2366 123.48 -11.6786 121.313C-11.1205 118.606 -10.0045 118.606 -9.26043 117.522C-9.07441 118.064 -8.8884 118.606 -8.70239 119.147C-7.95834 118.606 -8.14435 116.981 -8.33037 115.898C-8.70239 114.273 -9.26043 113.19 -8.8884 111.023C-8.14435 109.399 -7.21429 110.482 -6.28424 110.482C-5.91221 109.94 -5.7262 108.857 -5.54019 108.316C-4.79614 107.232 -4.42411 109.94 -3.86608 110.482C-3.49406 109.94 -3.30804 108.857 -2.93602 108.316C-2.564 108.857 -2.19197 109.94 -1.63394 110.482C-1.44793 109.94 -1.0759 108.857 -0.703878 107.774C-0.703878 107.232 -0.889891 106.691 -0.889891 106.149C-2.00596 103.441 -3.49406 101.817 -4.98215 101.275C-5.54019 99.1087 -5.16817 96.4008 -5.35418 93.693C-5.91221 93.1514 -6.47025 92.0682 -6.84227 91.5266C-6.84227 90.4435 -6.84227 89.9019 -6.84227 89.3603C-5.7262 85.0277 -3.68007 85.0277 -2.37799 81.2367C-0.889891 81.2367 0.784218 81.2367 2.27231 81.2367C2.45832 80.6951 2.64434 80.1535 3.01636 79.0704C4.87648 79.0704 6.7366 79.0704 8.59671 79.0704C8.96874 77.9872 9.15475 77.4456 9.34076 76.904C10.4568 75.8209 11.9449 77.4456 13.061 75.2793C11.7589 73.6546 10.6428 74.7377 9.52678 74.1962C8.4107 74.1962 7.10862 74.1962 5.99255 74.1962C4.87648 74.1962 3.57439 74.1962 2.45832 74.1962C1.34225 74.1962 0.226181 74.1962 -0.889891 74.1962C-1.26192 73.113 -1.44793 72.5714 -1.63394 72.0299C-6.28424 72.0299 -11.1205 72.0299 -15.7708 72.0299C-16.1429 71.4883 -16.3289 70.4051 -16.7009 69.8635C-18.747 69.8635 -20.7932 69.8635 -23.0253 69.8635C-23.2113 69.322 -23.3973 68.7804 -23.7694 67.6972C-24.5134 67.6972 -25.4435 67.6972 -26.1875 67.6972C-26.5595 66.6141 -26.7455 66.0725 -26.9316 65.5309C-27.4896 65.5309 -28.0476 64.9893 -28.7917 64.9893C-28.7917 63.9062 -28.9777 62.823 -29.1637 61.1983C-29.5357 60.6567 -30.0938 59.032 -30.6518 57.9488C-30.4658 53.6162 -29.1637 52.533 -28.6057 49.8252C-28.0476 49.8252 -27.4896 49.8252 -27.1176 49.8252C-26.1875 48.742 -26.0015 48.2004 -25.8155 47.6588C-24.8854 47.6588 -24.1414 47.6588 -23.3973 47.6588C-23.0253 48.742 -22.8393 49.2836 -22.4673 49.8252C-22.2813 48.2004 -22.2813 47.1173 -22.2813 46.0341C-21.5372 43.8678 -20.6071 45.4925 -19.6771 44.951C-19.3051 46.0341 -19.1191 46.5757 -18.747 47.6588C-18.375 46.0341 -18.003 43.8678 -17.631 41.7015C-18.375 39.5352 -19.1191 37.3689 -19.8631 35.2026C-19.1191 32.4947 -18.189 30.3284 -17.4449 28.162C-16.7009 27.0789 -15.7708 27.6205 -14.8408 27.0789C-14.6548 26.5373 -14.2827 25.9957 -13.9107 24.9126C-12.9807 24.9126 -11.8646 24.9126 -10.9345 24.9126C-10.5625 23.8294 -10.3765 23.2878 -10.1905 22.7463C-7.95834 22.7463 -5.35418 22.7463 -3.12203 22.7463C-2.564 21.6631 -2.37799 21.6631 -2.19197 20.58C0.412193 20.58 3.01636 20.58 5.62053 20.58C5.99255 20.0384 6.17856 18.9552 6.55058 18.4136C10.2708 18.4136 13.805 18.4136 17.5253 18.4136C17.7113 17.8721 18.0833 16.7889 18.2693 16.2473C18.6414 16.7889 18.8274 17.8721 19.1994 18.9552C19.5714 18.4136 19.9434 17.8721 20.6875 16.7889C20.8735 16.7889 21.0595 17.3305 21.4315 18.4136C21.6175 17.8721 21.8036 16.7889 22.1756 16.2473C22.3616 16.7889 22.7336 17.3305 22.9196 18.4136C23.1056 17.8721 23.2917 17.3305 23.4777 16.7889C23.6637 16.7889 23.6637 16.2473 23.8497 16.2473C29.058 16.2473 34.2663 16.2473 39.4747 16.2473C39.6607 15.7058 39.8467 15.1642 40.0327 14.6226C40.2187 14.6226 40.2187 14.081 40.4047 14.081C47.6592 14.081 55.0997 14.081 62.3541 14.081C62.5402 13.5394 62.7262 12.9979 63.0982 11.9147C67.0044 11.9147 71.0967 11.9147 75.0029 11.9147C75.189 10.8316 75.189 10.29 75.375 9.7484C77.4211 9.7484 79.4672 9.20682 81.5134 9.20682L81.6994 8.66525C78.7232 7.58209 77.6071 7.58209 75.375 10.29C75.003 10.29 74.6309 10.29 74.2589 10.29C73.8869 9.7484 73.7009 8.66525 73.5149 8.12367C72.5848 7.04051 72.3988 9.7484 71.6547 10.29C71.2827 9.7484 70.9107 9.20682 70.1666 8.12367C67.5625 8.12367 64.5863 8.12367 61.6101 8.12367C61.4241 8.66525 61.2381 9.20682 60.8661 10.29C54.1696 10.29 47.1012 10.29 40.4047 10.29C40.0327 11.3731 39.8467 11.9147 39.6607 12.4563C38.7306 12.4563 37.8006 12.9979 36.8705 11.9147C36.8705 10.8316 36.8705 9.7484 36.8705 9.20682C37.0565 8.66525 37.0565 8.12367 37.2425 8.12367C41.5208 8.12367 45.6131 8.12367 49.7053 8.12367C50.0774 7.58209 50.2634 6.49893 50.6354 5.95736C50.8214 6.49893 51.1934 7.58209 51.3794 8.12367C51.5655 6.49893 51.7515 5.95736 51.9375 5.41578C52.1235 5.95736 52.4955 6.49893 52.8675 7.04051C53.4256 7.04051 54.3556 7.04051 55.2857 7.04051C55.6577 7.04051 55.8437 4.33262 56.7738 4.8742C56.9598 5.41578 57.3318 5.95736 57.5178 7.04051C57.7038 6.49893 58.0759 5.41578 58.2619 4.8742C67.3765 4.8742 76.6771 4.8742 85.7916 4.8742C86.1637 4.33262 86.3497 3.24947 86.5357 2.70789C86.7217 3.24947 86.9077 3.79104 87.2797 4.8742C87.4657 4.33262 87.8378 3.79104 88.2098 3.24947C89.1398 3.24947 90.2559 3.24947 91.372 3.24947C91.558 3.79104 91.744 4.33262 92.116 4.8742C92.3021 4.33262 92.6741 3.79104 92.8601 2.70789C93.0461 3.24947 93.4181 3.79104 93.6041 4.8742C93.7901 4.33262 93.9762 3.79104 94.1622 3.24947C94.3482 3.24947 94.5342 2.70789 94.9062 2.70789C103.649 2.70789 112.391 2.70789 121.134 2.70789C121.506 2.16631 121.692 1.08316 121.878 0.541578C122.25 1.08316 122.436 2.16631 122.622 2.70789C123.552 3.79104 123.738 1.08316 124.668 0.541578C124.854 1.08316 125.412 1.62473 125.784 2.70789C125.97 2.16631 126.156 1.62473 126.528 1.08316C154.616 1.08316 182.89 1.08316 210.792 1.08316C210.978 1.62473 211.164 2.16631 211.536 3.24947C211.722 2.70789 212.094 1.62473 212.28 1.08316C213.024 1.08316 213.768 1.08316 214.698 1.08316C215.07 1.62473 215.256 2.70789 215.442 3.24947C216 3.24947 216.558 3.24947 216.93 3.24947C217.302 2.70789 217.488 1.62473 217.674 1.08316C219.534 1.08316 221.394 1.08316 223.254 1.08316C223.44 1.62473 223.626 2.16631 223.812 2.70789C224.184 2.16631 224.556 1.62473 225.115 0.541578C225.487 1.08316 225.859 2.16631 226.231 2.70789C226.417 2.16631 226.789 1.62473 226.975 0.541578C227.533 0.541578 227.905 0.541578 228.463 0.541578C228.649 1.08316 229.021 2.16631 229.207 2.70789C229.579 2.16631 229.765 1.08316 230.137 0C230.509 0.541578 230.881 1.08316 231.625 2.16631C231.811 1.62473 232.183 1.08316 232.741 0C233.113 0.541578 233.485 1.62473 233.857 2.16631C234.229 1.62473 234.601 0.541578 234.973 0C235.345 1.08316 235.717 1.62473 236.089 2.70789C236.461 2.16631 236.647 1.08316 237.019 0C237.391 0.541578 237.763 1.08316 238.693 2.70789C241.484 2.70789 244.646 2.70789 247.808 2.70789C247.994 3.79104 247.994 4.33262 248.18 4.8742C247.436 4.8742 246.878 4.8742 246.32 4.8742C245.948 5.41578 245.762 6.49893 245.576 7.04051C245.39 6.49893 245.204 5.95736 245.018 5.41578C239.251 4.33262 229.951 4.33262 227.161 5.95736L227.347 6.49893C227.533 6.49893 227.905 7.04051 228.091 7.04051C232.741 7.04051 237.205 7.04051 241.67 7.04051C241.856 7.58209 242.042 8.12367 242.414 9.20682C245.018 9.20682 247.622 9.20682 250.226 9.20682C250.598 10.29 250.784 10.8316 250.97 11.3731C254.318 11.3731 257.853 11.3731 261.201 11.3731C261.573 12.4563 261.759 12.9979 261.945 13.5394C265.851 13.5394 269.943 13.5394 273.664 13.5394C274.036 14.6226 274.222 15.1642 274.408 15.7058C275.896 15.7058 277.57 15.7058 279.058 15.7058C279.43 16.2473 279.616 17.3305 279.988 17.8721C281.104 17.8721 282.034 17.8721 283.15 17.8721C283.522 18.4136 283.708 19.4968 284.08 20.0384C285.94 20.0384 287.801 20.0384 289.475 20.0384C289.661 20.58 289.847 21.1215 290.219 22.2047C291.521 22.7463 292.823 22.2047 294.311 22.7463C294.497 23.2878 294.683 23.8294 295.055 24.9126C296.915 24.9126 298.775 24.9126 300.635 24.9126C301.007 25.9957 301.193 26.5373 301.379 27.0789C301.565 26.5373 301.937 25.9957 302.123 24.9126C302.309 25.4542 302.681 25.9957 302.867 27.0789C304.17 27.0789 305.472 27.0789 306.774 27.0789C307.146 28.162 307.332 29.2452 307.704 30.3284C307.704 30.3284 307.518 31.4115 307.332 31.4115C305.844 31.4115 304.17 31.4115 302.681 31.4115C302.495 31.4115 302.495 31.9531 302.495 31.9531C302.681 33.5778 303.24 33.0362 303.612 33.5778C303.984 34.661 304.542 36.2857 305.1 37.9104C305.286 37.3689 305.658 36.8273 306.03 35.7441C307.332 35.7441 308.634 35.7441 309.936 35.7441C310.122 36.2857 310.494 37.3689 310.68 37.9104C311.424 37.9104 312.168 37.9104 312.912 37.9104C313.284 38.452 313.47 39.5352 313.842 40.0768C314.4 40.0768 314.958 40.0768 315.33 40.0768C315.702 40.6183 315.888 41.7015 316.26 42.2431C317.004 42.2431 317.748 42.2431 318.492 42.2431C318.865 44.4094 319.237 46.0341 319.609 48.2004C319.423 48.742 319.237 49.2836 318.865 50.3667C319.423 51.9915 320.167 50.9083 320.725 51.4499C321.283 49.8252 321.841 48.2004 322.399 47.1173C322.957 47.1173 323.515 47.1173 323.887 47.1173C324.817 49.2836 324.073 50.9083 323.515 53.0746C324.445 54.6994 325.561 54.1578 326.305 53.6162C326.677 53.0746 326.863 52.533 327.235 51.4499C327.235 53.0746 327.421 54.1578 327.421 55.2409C326.863 55.7825 326.491 56.3241 325.933 56.8657C326.119 57.9488 326.305 59.032 326.491 60.1151C325.933 61.7399 325.189 60.1151 324.631 61.1983C324.259 60.1151 324.073 59.5736 323.701 58.4904C323.515 59.5736 323.515 60.6567 323.329 61.7399C324.259 63.3646 325.189 63.9062 325.747 66.6141C325.189 67.1556 324.817 67.1557 324.445 68.2388C324.073 69.322 323.701 70.4051 323.143 69.8635C322.213 68.2388 322.957 66.0725 322.585 63.9062C322.213 62.823 321.655 63.3646 321.097 63.3646C321.097 61.7399 321.097 59.5736 321.097 57.4072C320.725 56.8657 320.539 56.8657 320.167 56.3241C319.237 57.4072 319.051 60.6567 317.934 60.6567C317.004 61.1983 316.632 62.823 316.26 64.4478C316.26 68.2388 317.748 68.2388 317.748 71.4883C317.376 71.4883 317.004 71.4883 316.446 71.4883C316.26 72.5714 316.26 73.6546 316.074 74.1962C315.888 75.2793 315.702 76.3625 315.33 77.4456C315.702 78.5288 316.074 79.6119 316.446 80.1535C316.818 79.0704 317.19 77.9872 317.562 76.904C317.562 74.7377 317.562 73.113 317.562 71.4883C317.748 71.4883 317.934 72.0298 318.306 72.5714C318.306 74.7377 318.306 76.904 318.306 79.6119C318.306 80.6951 317.19 81.2367 317.748 84.4861C317.748 84.4861 318.12 85.5693 318.492 86.6525C319.237 86.1109 319.423 83.403 320.539 82.8614C320.539 82.8614 321.097 82.8614 321.655 82.8614C322.027 82.3198 322.213 81.2367 322.585 80.6951C322.957 82.3198 323.329 83.403 323.701 85.0277C324.073 87.194 324.259 89.3603 324.817 91.5266C325.189 93.1514 325.933 94.7761 326.491 96.4008C327.235 96.4008 327.979 96.4008 328.909 96.4008C329.281 98.0256 329.839 99.6503 330.211 100.733C330.769 100.733 330.955 100.733 331.327 100.733C331.513 101.817 331.513 102.358 331.699 103.983C331.141 105.066 330.397 106.691 330.025 107.774C330.025 109.94 330.025 111.565 330.025 113.19C329.839 114.273 329.467 114.814 329.281 115.356C329.467 116.439 329.839 116.981 330.025 117.522C330.211 119.689 329.839 121.313 330.397 122.938C330.583 121.313 330.955 119.689 331.141 118.064C331.513 120.23 331.885 121.855 332.257 124.021C332.071 124.563 331.885 125.104 331.699 126.188C331.885 126.729 332.257 127.812 332.443 128.354C332.443 129.979 332.443 131.603 332.443 132.687C332.257 133.228 332.071 133.77 331.885 133.77C328.723 133.77 325.561 133.77 322.771 133.77C322.399 134.853 322.213 135.394 321.841 135.936C320.911 135.936 319.609 135.936 318.492 135.936C318.678 138.644 319.423 139.186 319.795 141.352C319.609 141.893 319.609 142.435 319.423 142.435C317.376 142.435 315.33 142.435 313.098 142.435C312.912 144.06 312.54 145.684 312.168 147.309C311.052 145.684 310.122 144.601 309.192 142.977C308.262 144.601 307.146 145.684 306.03 147.309C305.658 145.143 305.472 143.518 305.286 142.435C304.914 142.435 304.728 142.435 304.542 142.435C303.798 144.06 304.356 145.684 304.17 147.851C303.984 148.934 303.612 150.017 303.24 151.1C302.681 151.1 302.123 151.642 301.379 151.642C301.193 152.183 301.007 152.183 301.007 152.725C301.007 155.433 301.007 158.682 301.007 161.39C300.821 162.473 300.449 163.015 300.263 163.557C300.635 164.64 301.007 165.723 301.379 166.806C301.565 166.264 301.937 165.181 302.123 164.64C302.681 164.64 303.426 164.64 303.984 164.64C304.17 165.723 304.356 166.806 304.728 166.806C305.286 166.806 306.03 167.348 306.402 165.723C305.844 163.557 304.914 164.64 303.984 164.64C304.356 163.015 304.728 160.849 305.1 158.682C305.286 158.682 305.844 158.141 306.216 157.599C306.216 155.974 306.402 154.35 306.402 152.183C306.96 150.559 307.704 151.642 308.262 151.1C308.634 151.642 308.82 152.725 309.192 153.267C309.75 153.267 310.308 153.267 310.866 153.267C311.052 154.35 311.052 154.891 311.238 156.516C310.308 158.682 309.378 160.849 308.82 162.473C308.82 164.098 308.82 165.181 308.82 165.723C309.378 167.348 310.122 166.806 310.68 166.806C311.238 166.806 311.796 166.806 312.168 166.806C312.726 166.806 313.47 166.806 314.028 166.806C314.214 163.557 313.47 165.181 312.726 162.473C312.912 163.557 312.726 161.932 312.54 160.849C312.54 160.307 312.168 160.307 311.982 159.765C311.982 157.058 311.982 154.35 311.982 152.183C311.796 151.642 311.424 150.559 311.052 149.475C311.61 148.934 311.982 148.934 312.54 148.934C312.726 150.559 312.726 151.642 312.726 152.725C313.284 154.35 314.028 155.974 314.586 158.141C314.958 158.141 315.33 158.682 315.888 158.682C315.888 161.39 315.888 164.098 315.888 165.723C316.446 167.348 316.818 168.431 317.004 169.514C317.562 169.514 318.12 169.514 318.678 169.514C319.609 167.348 318.678 164.098 319.237 161.39C319.423 161.39 319.609 160.849 319.981 160.849C319.981 162.473 319.981 164.64 319.981 166.264C320.167 166.806 320.539 167.889 320.725 168.972C320.167 170.597 319.609 171.68 318.865 173.305C319.051 174.388 319.423 175.471 319.609 177.096C319.795 178.179 319.981 179.804 320.167 180.887C320.911 181.429 321.097 181.429 321.469 179.262C321.655 179.262 322.027 178.721 322.027 178.721C322.213 177.638 321.841 177.096 321.469 177.096C321.469 174.93 322.399 174.388 322.585 172.222C323.143 173.846 323.701 175.471 324.259 177.096C324.817 177.096 325.375 177.096 325.933 177.096C325.933 178.179 326.119 179.804 326.119 180.887C323.887 181.97 322.213 184.136 320.911 188.469C319.981 187.386 319.423 186.303 318.865 185.761C317.562 188.469 319.051 192.802 317.934 194.968C317.562 193.885 317.19 192.802 316.818 191.719C317.19 190.094 317.934 189.552 317.376 186.303C316.446 185.22 315.33 186.303 314.028 185.761C313.656 186.844 313.284 187.928 312.912 188.469C312.726 192.802 314.028 193.343 314.214 196.051C314.028 196.593 313.656 197.676 313.47 198.759C311.982 201.467 310.866 195.51 309.006 197.676C309.006 197.676 308.634 198.217 308.076 199.301C307.704 198.217 307.332 197.676 306.774 196.593C306.03 196.593 305.286 196.593 304.542 196.593C304.17 197.676 303.798 198.217 303.612 198.759C302.495 198.759 302.309 194.968 301.193 197.134C301.193 197.676 301.007 198.759 301.007 199.842C301.379 200.925 301.751 202.009 302.309 203.092C303.426 204.716 304.17 201.467 305.286 200.925C305.658 202.009 305.844 202.55 306.216 203.092C306.402 202.55 306.774 201.467 306.96 200.925C308.076 200.384 308.634 205.258 310.308 202.55C310.122 202.55 310.494 202.009 310.866 201.467C311.238 202.009 311.61 202.55 312.168 203.633C312.54 203.092 312.912 202.009 313.47 200.925C313.656 202.009 314.028 203.092 314.4 204.175C314.028 204.716 313.656 205.258 313.098 205.8C313.284 207.424 313.842 206.883 314.214 207.424C314.586 207.966 314.772 208.507 314.958 209.049C315.144 208.507 315.33 207.966 315.702 206.883C315.888 207.424 316.26 207.966 316.632 209.049C317.562 209.049 318.678 209.049 320.353 209.049C319.795 209.591 317.004 211.757 316.818 211.757C317.376 212.84 317.934 213.382 318.492 213.923C317.934 216.631 316.818 213.923 316.074 216.631C317.376 217.714 318.678 217.173 319.981 217.173C321.097 217.173 322.213 216.631 323.701 218.256C322.027 219.881 320.911 218.797 319.795 219.339C319.237 220.422 318.864 221.505 318.306 222.588C319.795 225.296 321.097 222.588 322.399 224.755C322.213 225.838 322.027 226.38 321.655 227.463C322.213 228.004 322.771 229.087 323.143 229.629C323.143 230.712 323.143 231.254 323.143 231.795C322.585 232.878 321.841 233.42 320.911 235.045C320.539 235.045 319.609 235.045 318.865 235.045C318.492 235.586 318.306 236.669 317.934 237.211C315.33 237.211 312.726 237.211 310.122 237.211C309.75 237.753 309.564 238.836 309.192 239.377C303.612 239.377 298.217 239.377 292.637 239.377C292.451 239.919 292.265 240.461 291.893 241.544C289.661 242.085 287.242 241.544 284.638 241.544C284.452 242.085 284.266 242.627 283.894 243.71C278.5 243.71 272.92 243.71 267.339 243.71C266.967 244.793 266.781 245.335 266.595 245.876C257.109 245.876 247.622 245.876 238.321 245.876C237.949 246.959 237.763 247.501 237.577 248.043C209.117 248.043 180.286 248.043 151.826 248.043C151.454 249.126 151.268 249.667 151.082 250.209C142.711 250.209 134.341 250.209 125.97 250.209C125.784 249.667 125.412 249.126 125.226 248.043C124.854 248.584 124.482 249.667 124.11 250.751C123.552 249.667 123.18 249.126 122.808 248.043C97.6964 248.043 72.5848 248.043 47.2872 248.043C47.1012 247.501 46.9152 246.959 46.5431 245.876C42.4509 245.876 38.1726 245.876 33.8943 245.876C33.5223 244.793 33.3363 244.252 33.1503 243.71C31.6622 243.71 29.9881 243.71 28.5 243.71C28.128 242.627 27.942 242.085 27.7559 241.544C25.8958 241.544 24.2217 241.544 22.1756 241.544C21.6175 239.377 20.8735 236.669 20.1295 234.503C18.8274 234.503 17.7113 234.503 16.5952 234.503C15.6652 231.795 16.4092 230.712 16.9672 229.087C16.9672 227.463 16.9672 226.38 16.9672 224.755C17.8973 222.588 18.4553 218.256 19.9434 218.797C19.7574 216.631 19.1994 215.006 18.8274 214.465C18.0833 213.923 17.7113 213.382 17.7113 211.215C17.7113 209.591 16.9673 208.507 16.5952 207.424C15.1071 206.883 15.6652 210.132 14.9211 211.757C14.7351 211.215 14.3631 210.674 13.9911 209.591C13.247 209.591 12.503 209.591 11.7589 209.591C11.3869 210.132 11.2009 212.298 10.4568 211.757C10.4568 211.215 10.2708 210.132 10.2708 210.132C9.71278 209.591 9.71279 210.674 9.71279 211.757C9.15475 211.757 8.96874 212.299 8.96874 213.382C8.96874 215.006 8.96874 216.09 9.71279 216.09C9.71279 216.631 9.8988 217.714 9.8988 217.714C11.0149 217.714 11.7589 222.047 13.433 219.881C13.433 219.881 13.9911 218.256 14.3631 217.173C13.9911 216.09 13.805 215.006 13.433 213.923C13.9911 213.382 14.3631 213.382 14.5491 213.382C15.4792 215.548 14.5491 218.256 14.9211 220.964C15.1071 222.047 15.4792 223.13 15.6652 224.755C14.9211 224.755 14.1771 224.755 13.805 224.755C12.317 228.546 14.5491 229.629 13.9911 232.878C13.061 234.503 13.061 234.503 12.1309 232.337C11.7589 232.878 11.3869 233.42 10.8289 234.503C10.4568 233.962 9.8988 232.878 9.15475 231.795C8.78273 232.337 8.41071 233.42 7.85267 233.962C7.66666 233.42 7.48064 232.337 7.48064 231.795C7.66666 229.629 8.22469 228.004 8.96874 227.463C9.15475 229.087 8.96874 230.712 9.71279 229.087C9.52678 228.546 9.34076 228.004 8.96874 227.463C9.34076 224.213 8.22469 222.047 7.85267 218.797C7.66666 217.714 7.48064 216.09 7.10862 214.465C6.92261 214.465 6.36457 213.923 5.99255 213.382C5.62053 212.299 5.2485 211.757 4.69046 211.757C3.94642 209.591 3.20237 207.424 2.45832 205.258C2.27231 205.8 1.90029 206.341 1.71428 206.883C0.97023 207.424 0.0401688 207.966 -0.703878 205.258C-1.44793 205.258 -2.19197 205.258 -3.12203 205.258C-3.30804 205.8 -3.68007 206.341 -4.05209 207.424C-4.42412 206.341 -4.61013 205.258 -5.16816 203.633C-5.16816 203.092 -5.16816 201.467 -5.16816 199.301C-5.7262 198.217 -6.28424 197.134 -6.84227 196.051C-6.84227 193.885 -6.84227 192.26 -6.84227 190.094C-7.58632 188.469 -8.51638 186.303 -9.26043 184.136C-9.07441 182.512 -8.8884 181.429 -8.8884 180.345C-8.51638 181.429 -8.33037 181.97 -7.95834 182.512C-7.77233 181.97 -7.40031 180.887 -7.21429 180.345C-6.84227 181.429 -6.47025 182.512 -6.09822 183.595C-6.09822 184.136 -6.09822 185.22 -6.09822 185.761C-5.54019 187.386 -4.79614 189.552 -4.2381 191.177C-3.86608 190.635 -3.68007 188.469 -3.12203 189.011C-3.12203 191.177 -2.37799 191.719 -2.00596 193.343C-1.81995 193.885 -1.26191 193.343 -1.0759 193.343C-0.517864 190.094 -1.0759 187.928 -1.44793 185.22C-0.889889 183.595 -0.145842 184.678 0.412193 184.678C0.97023 181.97 1.15624 178.179 2.83035 177.096C1.90029 176.013 1.52826 176.013 0.970226 175.471C0.784218 174.388 0.598206 172.763 0.412193 171.68C0.226181 172.222 -0.14584 172.763 -0.14584 172.763C-0.14584 174.388 -0.14584 175.471 -0.14584 177.096C-0.703876 179.262 -1.44793 177.638 -2.00596 178.179C-2.19197 177.638 -2.564 176.554 -2.93602 176.013C-4.05209 176.013 -4.98215 176.013 -6.09822 176.013C-6.47025 175.471 -6.65626 174.388 -6.84227 173.846C-7.21429 174.388 -7.40031 175.471 -7.58632 176.013C-8.14435 174.388 -8.51638 172.222 -9.07441 172.222C-6.84227 175.471 -7.21429 173.305 -7.95834 173.305C-8.33037 173.305 -8.70239 173.305 -9.26043 173.305C-9.44644 173.846 -9.81846 174.93 -10.1905 175.471C-10.3765 175.471 -10.7485 175.471 -10.9345 175.471C-11.1205 175.471 -11.4926 175.471 -11.6786 175.471C-11.8646 175.471 -11.8646 176.013 -12.0506 176.013C-12.7946 177.096 -13.5387 178.179 -14.2827 179.804C-14.4688 179.262 -14.6548 178.721 -14.8408 178.179C-15.5848 178.179 -16.3289 178.179 -16.8869 178.179C-17.817 176.554 -18.561 175.471 -19.3051 174.388C-18.561 172.222 -17.4449 170.597 -17.0729 167.889C-16.7009 165.181 -16.3289 163.557 -15.5848 161.932C-14.6548 161.39 -14.4688 163.015 -14.4688 165.181C-14.0967 166.264 -13.7247 167.348 -13.3527 168.431C-12.6086 168.431 -11.6786 168.431 -10.7485 168.431C-10.5625 166.806 -10.3765 165.723 -10.1905 164.098C-9.81846 165.181 -9.63245 165.723 -9.26043 166.264C-8.51638 166.264 -7.77233 166.264 -6.84227 166.264C-6.47025 165.181 -6.09822 164.098 -5.7262 163.015C-6.28424 162.473 -6.65626 161.39 -7.21429 160.849C-7.02828 159.224 -6.28424 159.224 -6.47025 157.058C-5.16816 157.599 -4.42412 154.891 -3.49406 154.35C-3.68007 152.725 -4.05209 150.559 -4.2381 148.934C-4.2381 148.392 -4.61013 148.392 -4.79614 148.392C-4.98215 146.768 -4.79614 145.143 -5.54019 146.768C-5.35418 147.309 -5.16817 147.851 -4.79614 148.392C-4.79614 148.934 -4.79614 150.017 -4.79614 151.642C-5.35418 152.725 -5.91221 154.35 -6.28424 155.974C-6.28424 155.974 -6.28424 156.516 -6.28424 157.058C-6.84227 157.058 -7.58632 157.058 -8.33037 157.058C-8.51638 158.141 -8.70239 159.765 -8.70239 160.849C-9.44644 161.932 -10.1905 161.932 -10.9345 160.849C-10.7485 160.307 -10.5625 159.224 -10.1905 158.682C-10.3765 157.058 -11.1205 156.516 -10.9345 154.35C-10.7485 153.808 -10.3765 152.725 -10.1905 152.183C-10.1905 150.559 -10.1905 148.392 -10.1905 146.768C-10.0045 146.768 -9.63245 146.768 -9.44644 146.226C-9.26043 147.851 -9.44644 149.475 -8.70239 147.851C-8.8884 147.309 -9.07441 146.768 -9.44644 146.226C-9.07441 145.143 -8.8884 144.06 -8.70239 142.977C-9.63245 140.269 -10.5625 138.102 -11.4926 134.853C-12.0506 137.561 -11.6786 140.81 -12.0506 142.977C-12.2366 144.06 -12.6086 145.143 -12.6086 146.768C-12.6086 147.851 -12.4226 148.934 -11.8646 148.392C-12.0506 150.559 -11.6786 152.725 -12.2366 154.891C-12.4226 154.35 -12.7947 153.808 -13.1667 152.725C-13.3527 153.267 -13.7247 153.808 -13.9107 154.891C-14.0967 153.267 -14.4688 152.183 -14.6548 150.559C-15.2128 151.642 -15.5848 152.183 -15.9569 153.267C-16.1429 151.642 -15.9569 150.017 -16.7009 151.642C-16.5149 152.183 -16.3289 152.725 -15.9569 153.267ZM298.589 164.098C299.147 163.557 299.891 163.557 299.333 161.932C299.147 162.473 298.961 163.015 299.147 163.557C298.589 164.098 297.845 164.098 298.403 165.723C298.403 165.723 298.589 165.181 298.589 164.098ZM4.31844 114.273C4.50446 115.898 4.50446 117.522 5.06249 116.439C4.87648 115.898 4.69047 115.356 4.50446 115.898C4.31844 114.273 4.31844 112.648 3.76041 113.731C3.94642 113.731 4.13243 114.273 4.31844 114.273ZM303.426 74.1962C303.984 73.6546 304.728 75.2793 304.914 73.113C303.984 72.0298 303.984 72.0298 303.426 74.1962C303.612 74.7377 303.426 74.1962 303.426 74.1962C303.053 74.7377 302.867 74.7377 302.681 75.2793L302.867 75.8209C303.24 75.8209 303.426 75.2793 303.426 74.1962ZM-0.889891 117.522C-1.0759 115.898 -1.0759 114.273 -1.63394 115.356C-1.44793 115.898 -1.26192 116.439 -0.889891 116.439C-0.889891 118.064 -0.889891 120.23 -0.889891 121.855C-0.145844 122.938 0.598206 124.021 1.34225 125.104C1.34225 122.938 1.34225 121.313 1.34225 119.147C0.97023 118.064 0.598206 116.981 0.226181 115.898C-0.331854 116.981 -0.703878 116.981 -0.889891 117.522ZM5.2485 195.51C6.55059 194.968 5.62053 199.301 6.55058 199.842C7.10862 199.301 7.85266 200.384 8.4107 198.759C8.4107 198.217 8.4107 197.134 8.59671 196.593C8.03868 193.343 6.7366 192.802 5.62053 190.635C5.2485 192.802 5.2485 193.885 5.2485 195.51C4.50446 196.593 4.50446 196.593 4.87648 199.842C5.62053 198.759 5.06249 197.134 5.2485 195.51ZM13.619 108.316C14.3631 107.232 15.1071 105.608 15.6652 106.149C16.5952 106.149 16.9673 104.525 17.5253 103.983C17.7113 104.525 17.8973 105.066 18.0833 105.608C21.0595 105.608 24.0357 105.608 27.0119 105.608C27.3839 104.525 27.7559 103.441 28.128 102.358C27.942 101.275 27.942 100.192 27.7559 99.6503C27.3839 99.6503 27.1979 99.6503 26.8259 99.6503C26.6399 100.192 26.2678 101.275 25.8958 101.817C21.9896 101.817 18.0833 101.817 14.1771 101.817C13.805 103.441 13.061 103.983 12.875 106.149C13.247 106.691 13.433 107.232 13.619 108.316ZM7.29464 110.482C8.22469 106.149 9.52678 108.857 10.6428 107.232C11.2009 106.149 11.9449 105.608 12.503 104.525C12.317 103.441 12.317 102.358 12.1309 101.275C11.5729 102.358 11.0149 102.9 10.6428 103.983C10.2708 102.9 9.8988 102.358 9.71279 101.275C8.96874 101.275 8.22469 101.275 7.48064 101.275C7.10862 101.817 6.92261 102.9 6.7366 103.441C6.36457 102.9 6.17856 102.358 5.99255 101.817C5.43451 102.9 5.06249 103.441 4.69046 103.983C4.31844 102.9 3.94642 102.358 3.76041 101.817C3.38838 102.358 3.01636 103.441 2.64434 103.441C2.0863 103.983 1.71428 103.983 1.15624 103.983C1.15624 103.983 1.15624 104.525 0.970226 104.525C1.34225 105.608 1.71428 106.691 2.0863 107.774C2.64434 107.774 3.20237 107.774 3.5744 107.774C3.94642 108.316 4.13243 109.399 4.31844 109.94C4.69047 109.399 4.87648 108.316 5.2485 107.774C5.80654 108.316 6.55059 107.232 7.29464 110.482ZM14.5491 182.512C13.805 183.595 13.433 184.136 12.875 184.678C12.1309 185.761 11.5729 183.053 10.8289 182.512C10.8289 183.595 10.6428 184.678 10.6428 185.22C11.2009 186.844 11.7589 187.928 12.1309 189.552C12.317 190.635 12.503 192.26 12.689 193.885C13.433 193.885 13.9911 193.885 14.5491 193.885C14.7351 195.51 14.9211 196.593 14.9211 197.676C15.4792 196.593 16.0372 196.051 16.4092 194.968C16.4092 192.26 16.4092 191.177 16.2232 190.094C15.4792 187.386 14.5491 185.761 14.5491 182.512ZM308.634 94.7761C308.076 95.3177 307.332 94.2345 306.588 95.8593C306.96 97.484 306.216 99.6503 306.96 101.275C307.704 101.275 308.448 101.275 309.192 101.275C309.564 100.733 309.75 99.6503 309.936 99.1087C310.308 99.6503 310.494 100.733 310.866 101.275C311.424 101.275 311.982 101.275 312.354 100.733C312.54 100.733 312.54 100.192 312.726 99.6503C311.796 97.484 311.424 94.2345 310.122 93.693C309.75 94.7761 309.564 95.3177 309.192 95.8593C309.192 95.8593 308.82 95.3177 308.634 94.7761ZM18.2693 191.177C19.1994 190.635 20.1295 191.719 20.8735 190.635C20.6875 189.552 20.3155 188.469 20.1295 187.386C19.9434 185.761 20.3155 183.595 19.7574 182.512C18.8274 183.053 18.0833 181.97 17.1533 183.053C17.1533 184.678 17.1533 186.303 17.1533 187.928C17.5253 189.011 17.8973 190.094 18.2693 191.177ZM301.007 154.35C301.007 151.1 299.891 154.35 299.705 152.183C299.519 151.1 299.333 149.475 299.333 148.392C298.589 148.934 298.031 147.851 297.287 149.475C297.287 151.1 297.287 152.725 297.473 154.35C297.473 154.891 297.659 154.891 297.659 154.891C298.775 154.891 299.705 154.891 300.821 154.891C300.821 154.891 300.821 154.891 301.007 154.35ZM324.817 109.399C325.003 110.482 324.445 112.107 324.631 112.107C325.933 109.94 326.677 108.316 327.421 107.232C327.235 105.066 327.607 102.9 326.863 101.275C326.305 101.817 325.561 100.733 325.003 102.358C324.631 104.525 325.189 105.608 325.747 107.232C325.189 107.774 325.003 108.316 324.817 109.399ZM301.565 59.032C301.937 57.9488 302.495 56.8657 302.681 55.2409C302.123 54.6994 301.937 51.9915 301.193 52.533C299.333 56.3241 299.333 57.4072 300.077 59.032C300.449 59.032 301.007 59.032 301.565 59.032ZM314.958 101.275C315.516 101.275 316.074 101.275 316.632 101.275C316.818 100.733 317.004 99.6503 317.376 99.1087C317.748 98.5672 318.306 99.6503 318.492 96.9424C317.19 96.9424 315.702 96.9424 314.4 96.9424C314.214 96.9424 314.214 98.0256 314.028 98.0256C314.214 99.1087 314.586 100.192 314.958 101.275ZM292.823 154.891C293.381 154.35 294.125 155.433 294.683 154.35C294.683 152.183 293.939 153.267 293.567 152.725C292.823 150.559 292.079 148.392 291.335 146.226H291.149C290.963 149.475 290.963 149.475 292.823 154.891ZM320.911 100.192C320.911 99.1087 320.725 98.0256 320.539 95.3177C319.981 97.484 319.609 98.5672 319.237 99.6503C319.423 100.192 322.213 105.066 322.399 105.066C322.585 105.066 322.771 104.525 323.143 103.983C322.771 101.817 321.469 101.817 320.911 100.192ZM2.64434 164.098C0.598206 164.098 0.598206 164.098 -0.331854 165.723C0.226183 165.723 0.598206 166.264 0.784218 166.264C1.71428 166.264 2.64434 166.806 3.38839 165.723C3.57439 163.557 3.76041 161.39 3.01636 159.224C3.01636 160.849 3.01636 161.932 2.64434 164.098ZM-4.98215 163.015C-4.61013 164.098 -4.23811 165.723 -3.49406 166.264C-3.49406 163.557 -3.49406 161.39 -3.49406 158.682C-3.49406 158.141 -3.86608 158.141 -4.05209 157.599C-4.2381 159.224 -4.98215 159.765 -4.98215 163.015ZM304.356 147.309C303.984 146.226 303.612 145.143 303.24 144.06C302.495 144.06 301.751 142.977 301.193 145.143C301.751 145.684 302.123 145.684 302.495 146.226C302.867 146.768 303.24 148.392 303.798 147.851C303.798 147.851 304.17 147.851 304.356 147.309ZM307.518 59.5736C307.89 60.6567 308.076 62.2815 308.82 62.823C309.192 61.7399 309.564 60.6567 309.75 60.1151C309.378 59.032 309.006 57.9488 308.634 56.8657C308.262 57.4072 307.89 58.4904 307.518 59.5736ZM8.59671 186.303C8.4107 184.136 8.41071 183.595 8.22469 181.97C7.66666 182.512 7.29463 182.512 6.7366 182.512C6.92261 184.136 6.92261 185.22 6.92261 186.303C7.48064 186.303 7.85267 186.303 8.59671 186.303ZM82.0714 8.66525C83.9315 9.7484 83.9315 9.7484 84.4896 8.12367C83.9315 7.04051 83.1875 7.04051 82.0714 8.66525ZM312.354 72.5714C312.726 70.9467 313.47 69.8635 313.47 68.2388C313.098 67.1557 312.54 67.1556 311.982 68.7804C312.168 69.8635 312.354 70.9467 312.354 72.5714ZM300.263 143.518C298.589 141.352 298.589 141.893 298.031 143.518C298.403 143.518 298.775 144.06 299.147 144.06C299.519 144.06 299.891 143.518 300.263 143.518ZM305.844 194.426C305.1 192.802 304.17 192.802 303.426 194.426C304.356 196.051 305.1 196.051 305.844 194.426ZM13.433 204.716C13.9911 203.092 13.9911 201.467 13.619 199.842C13.247 199.842 12.875 200.384 12.689 200.384C12.875 201.467 13.247 203.092 13.433 204.716ZM289.475 54.1578C289.661 54.1578 289.847 54.1578 290.033 54.1578C290.033 53.0746 290.219 51.9915 290.219 50.9083L290.033 50.3667C289.847 50.3667 289.475 50.9083 289.475 50.9083C289.289 51.9915 289.475 53.0746 289.475 54.1578ZM293.381 53.0746C292.637 51.4499 292.079 50.9083 291.893 53.6162C292.265 54.6994 292.637 54.6994 293.381 53.0746ZM314.586 63.9062C314.586 64.4478 314.586 64.9893 314.586 65.5309C314.958 65.5309 315.33 66.0725 315.702 66.0725L315.888 65.5309C315.888 64.9893 315.702 63.9062 315.516 63.9062C315.33 63.3646 314.958 63.3646 314.586 63.9062ZM316.818 70.9467C316.26 69.322 315.702 69.322 315.33 70.9467C315.888 72.5714 316.26 72.5714 316.818 70.9467ZM319.423 106.149C319.423 106.691 319.423 107.232 319.423 107.774C319.795 107.774 320.167 108.316 320.539 108.316L320.725 107.774C320.725 107.232 320.539 106.149 320.353 106.149C319.981 105.608 319.609 106.149 319.423 106.149ZM13.619 231.254C14.1771 229.087 14.3631 228.004 13.433 226.921C13.061 228.546 13.061 229.629 13.619 231.254ZM24.5937 186.303C24.0357 187.928 24.0357 189.552 24.5937 190.635C25.1518 189.552 25.1518 187.928 24.5937 186.303ZM298.775 138.102C299.333 139.727 299.891 139.727 300.263 138.102C299.891 136.478 299.333 136.478 298.775 138.102ZM317.748 135.394C317.748 135.936 317.748 136.478 317.748 137.019C318.12 137.019 318.492 137.561 318.865 137.561L319.051 137.019C319.051 136.478 318.865 135.394 318.678 135.394C318.492 134.853 318.12 135.394 317.748 135.394ZM287.056 51.4499C287.242 51.9915 287.242 51.9915 287.428 51.9915C287.428 51.4499 287.615 50.9083 287.615 50.3667L287.428 49.8252C287.242 50.3667 287.242 50.9083 287.056 51.4499ZM318.865 50.3667C318.678 50.3667 318.492 50.9083 318.306 50.9083L318.492 51.4499C318.678 51.4499 318.865 50.9083 319.051 50.9083C319.237 50.9083 319.051 50.3667 318.865 50.3667ZM298.589 56.3241C298.775 55.7825 298.775 55.7825 298.961 55.7825C298.775 55.7825 298.589 55.2409 298.403 55.2409L298.217 55.7825C298.217 55.7825 298.403 55.7825 298.589 56.3241ZM149.966 57.9488C149.966 57.4072 149.78 56.8657 149.594 56.3241L149.408 56.8657C149.408 57.4072 149.594 57.9488 149.594 58.4904C149.78 58.4904 149.78 58.4904 149.966 57.9488ZM306.216 58.4904C306.402 58.4904 306.588 57.9488 306.774 57.9488L306.588 57.4072C306.402 57.4072 306.216 57.9488 306.03 57.9488C306.03 57.9488 306.03 57.9488 306.216 58.4904ZM306.588 73.6546C306.588 73.113 306.402 72.5714 306.216 72.0299L306.03 72.5714C306.03 73.113 306.216 73.6546 306.216 74.1962C306.402 74.1962 306.402 74.1962 306.588 73.6546ZM67.3765 87.194C67.3765 86.6525 67.1905 86.1109 67.0044 85.5693L66.8184 86.1109C66.8184 86.6525 67.0044 87.194 67.0044 87.7356C67.1905 87.7356 67.1905 87.194 67.3765 87.194ZM52.1235 92.6098C51.9375 92.6098 51.7515 93.1514 51.5655 93.1514L51.7515 93.693C51.9375 93.693 52.1235 93.1514 52.3095 93.1514C52.3095 93.1514 52.3095 93.1514 52.1235 92.6098ZM34.6384 101.275C34.8244 101.275 35.0104 100.733 35.1964 100.733L35.0104 100.192C34.8244 100.192 34.6384 100.733 34.4524 100.733C34.4524 100.733 34.6384 100.733 34.6384 101.275ZM-5.91221 116.439C-5.91221 115.898 -6.09822 115.356 -6.28424 114.814L-6.47025 115.356C-6.47025 115.898 -6.28424 116.439 -6.28424 116.981C-6.09822 116.981 -5.91221 116.439 -5.91221 116.439ZM17.5253 116.981L17.3393 117.522C17.3393 118.064 17.5253 118.606 17.5253 119.147L17.7113 118.606C17.7113 118.064 17.5253 117.522 17.5253 116.981ZM6.36457 119.689C6.17856 120.23 6.17856 120.23 5.99255 120.23C6.17856 120.23 6.36457 120.772 6.55058 120.772L6.7366 120.23C6.7366 120.23 6.55059 119.689 6.36457 119.689ZM-4.79614 127.271C-4.61013 127.812 -4.61013 127.812 -4.42412 127.812C-4.42412 127.271 -4.2381 126.729 -4.2381 126.188L-4.42412 125.646C-4.61013 126.729 -4.79614 126.729 -4.79614 127.271ZM-7.95834 132.145C-7.77233 132.687 -7.77233 132.687 -7.58632 132.687C-7.58632 132.145 -7.40031 131.603 -7.40031 131.062L-7.58632 130.52C-7.77233 131.062 -7.95834 131.603 -7.95834 132.145ZM297.101 136.478C297.101 135.936 296.915 135.394 296.729 134.853L296.543 135.394C296.543 135.936 296.729 136.478 296.729 137.019C296.915 137.019 296.915 136.478 297.101 136.478ZM294.869 149.475C294.869 150.017 295.055 150.559 295.241 151.1L295.427 150.559C295.427 150.017 295.241 149.475 295.241 148.934C295.241 148.934 295.055 148.934 294.869 149.475ZM4.69046 160.307C4.69046 160.849 4.87648 161.39 5.06249 161.932L5.2485 161.39C5.2485 160.849 5.06249 160.307 5.06249 159.765C4.87648 159.765 4.69046 160.307 4.69046 160.307ZM308.262 163.557C308.448 164.098 308.448 164.098 308.634 164.098C308.634 163.557 308.82 163.015 308.82 162.473L308.634 161.932C308.448 162.473 308.448 163.015 308.262 163.557ZM23.2917 183.053C23.1056 182.512 23.1056 182.512 22.9196 182.512C22.9196 183.053 22.7336 183.595 22.7336 184.136L22.9196 184.678C23.1056 183.595 23.1056 183.053 23.2917 183.053ZM9.71279 186.303C9.8988 185.761 9.8988 185.761 10.0848 185.761C9.8988 185.761 9.71279 185.22 9.52678 185.22L9.34076 185.761C9.34076 185.761 9.52678 185.761 9.71279 186.303ZM310.494 187.386C310.308 186.844 310.308 186.844 310.122 186.844C310.122 187.386 309.936 187.928 309.936 188.469L310.122 189.011C310.308 188.469 310.308 187.927 310.494 187.386ZM8.4107 190.094L8.22469 189.552C8.03868 189.552 7.85267 190.094 7.66666 190.094L7.85267 190.635C8.03868 190.635 8.22469 190.094 8.4107 190.094ZM18.8274 203.633C19.0134 204.175 19.0134 204.175 19.1994 204.175C19.1994 203.633 19.3854 203.092 19.3854 202.55L19.1994 202.009C19.0134 202.55 18.8274 203.092 18.8274 203.633Z" fill="#0077FF" fill-opacity="0.29"/>
</svg>
