<svg width="1482" height="225" viewBox="0 0 1482 225" fill="none" xmlns="http://www.w3.org/2000/svg">
<path d="M64.3756 136.974C63.6192 138.426 66.645 138.426 67.4014 139.878C65.8885 140.362 64.3756 140.362 63.6192 140.846C59.837 139.394 58.3241 136.974 56.8112 134.554C56.0547 135.038 54.5418 136.006 53.0289 136.974C51.516 134.554 51.516 133.102 50.7596 130.682C46.9773 130.682 43.1951 130.682 40.1693 130.682C38.6564 131.65 36.3871 133.102 34.1177 134.554C33.3613 133.586 33.3613 133.102 32.6048 132.134C31.0919 130.682 29.579 129.714 28.0661 128.262C26.5532 129.714 25.7968 131.166 25.0403 132.618C23.5274 132.618 22.771 132.618 21.2581 132.618C20.5016 131.65 19.7452 130.198 18.9887 128.746C16.7194 128.746 14.4501 128.746 12.9372 128.262C8.39847 125.842 4.61623 123.422 0.833984 121.486C0.833984 120.518 0.833984 120.034 0.833984 119.066C5.37267 118.098 9.91136 118.582 14.4501 118.582C15.2065 119.066 16.7194 120.034 18.2323 121.002C18.9887 119.066 18.9887 117.13 19.7452 115.194C22.0145 113.742 25.0403 114.71 27.3097 114.71C28.8226 114.226 29.579 113.258 30.3355 112.774C31.8484 113.258 32.6048 113.742 34.1177 114.71C34.8742 112.29 34.8742 110.354 35.6306 108.902C40.9258 109.87 42.4386 114.226 47.7338 114.71C50.0031 116.162 50.0031 116.162 53.7854 116.162C53.7854 115.678 54.5418 115.678 54.5418 115.194C54.5418 111.806 54.5418 108.418 54.5418 105.514C53.0289 104.546 52.2725 104.062 51.516 103.094C51.516 101.642 51.516 100.19 54.5418 100.19C57.5676 100.19 61.3499 103.578 65.1321 107.934C66.645 107.934 68.1579 108.418 69.6708 108.902C70.4272 108.902 70.4272 109.386 70.4272 109.386C70.4272 110.354 70.4272 110.838 70.4272 111.322C71.9401 112.29 73.453 113.258 74.9659 114.226C78.7482 113.258 79.5046 110.354 81.774 108.418C84.0433 105.998 88.582 105.998 91.6078 105.03C92.3642 105.514 93.1207 105.998 93.8771 106.482C96.9029 105.998 96.1465 104.546 95.39 103.578C93.8771 102.126 91.6078 101.158 93.1207 99.2217C96.1465 97.7697 99.9287 98.7377 103.711 98.7377C105.224 98.2537 105.98 97.2857 106.737 96.8017C109.763 95.8337 111.275 98.2537 113.545 98.7377C115.058 98.2537 115.814 97.2857 117.327 96.8017C118.84 97.2857 120.353 98.2537 122.622 98.7377C123.379 98.2537 124.892 97.2857 126.404 96.3177C126.404 95.8337 125.648 95.3497 125.648 94.8657C121.109 92.4456 115.058 90.9936 109.006 90.5096C106.737 88.5736 108.25 86.1535 107.493 83.7335C105.224 83.2495 102.955 82.2814 101.442 81.7974C101.442 80.8294 101.442 80.3454 101.442 79.8614C105.98 75.9893 114.301 75.9893 119.596 72.6013C125.648 72.6013 132.456 72.6013 138.508 72.6013C139.264 72.1173 140.02 71.6333 141.533 70.6652C149.098 70.6652 156.662 70.6652 164.227 70.6652C165.74 69.6972 166.496 69.2132 167.253 68.7292C171.791 67.7612 177.843 69.2132 182.382 67.2772C177.086 65.8252 172.548 66.7932 168.009 66.3092C163.47 66.3092 158.175 66.3092 153.637 66.3092C149.098 66.3092 143.803 66.3092 139.264 66.3092C134.725 66.3092 130.187 66.3092 125.648 66.3092C124.135 65.3411 123.379 64.8571 122.622 64.3731C103.711 64.3731 84.0433 64.3731 65.1321 64.3731C63.6192 63.8891 62.8628 62.9211 61.3499 62.4371C53.0289 62.4371 44.708 62.4371 35.6306 62.4371C34.8742 61.9531 34.1177 61.4691 32.6048 60.5011C29.579 60.5011 25.7968 60.5011 22.771 60.5011C21.2581 59.533 20.5016 59.049 19.7452 58.565C17.4758 58.565 15.2065 58.081 12.1807 58.081C12.1807 57.113 11.4243 56.145 10.6678 54.693C9.15492 54.209 6.88557 52.7569 4.61623 51.7889C5.37267 47.9168 10.6678 46.9488 12.9372 44.5288C15.2065 44.5288 17.4758 44.5288 18.9887 44.5288C22.771 43.5608 23.5274 43.0768 24.2839 42.5928C28.0661 42.5928 31.0919 42.5928 34.1177 42.5928C35.6306 43.5608 36.3871 44.0448 37.9 44.5288C38.6564 43.0768 38.6564 42.1087 38.6564 41.1407C41.6822 39.2047 45.4644 40.6567 49.2467 40.1727C50.7596 41.1407 51.516 41.6247 53.0289 42.5928C54.5418 41.1407 56.0547 39.2047 57.5676 37.2687C54.5418 35.3326 51.516 33.3966 48.4902 31.4606C51.516 29.0405 55.2983 27.1045 58.3241 25.1684C61.3498 24.2004 65.1321 24.6844 68.9143 24.2004C69.6708 23.7164 71.1837 23.2324 72.6966 22.2644C76.4788 22.2644 81.0175 22.2644 84.7998 22.2644C86.3126 21.2964 87.0691 20.8124 87.8255 20.3284C96.9029 20.3284 107.493 20.3284 116.571 20.3284C118.84 19.3603 119.596 19.3603 120.353 18.3923C130.943 18.3923 141.533 18.3923 152.124 18.3923C153.637 17.9083 154.393 16.9403 155.906 16.4563C171.035 16.4563 185.407 16.4563 200.536 16.4563C201.293 15.9723 202.806 15.0043 203.562 14.5203C205.075 15.0043 205.831 15.9723 207.344 16.9403C208.857 16.4563 210.37 15.9723 213.396 15.0043C214.152 15.0043 214.909 15.4883 216.422 16.4563C217.178 15.9723 217.935 15.0043 219.448 14.5203C220.204 15.0043 221.717 15.4883 222.473 16.4563C223.23 15.9723 223.986 15.4883 224.743 15.0043C225.499 15.0043 225.499 14.5203 226.256 14.5203C247.436 14.5203 268.617 14.5203 289.797 14.5203C290.554 14.0362 291.31 13.5522 292.067 13.0682C292.823 13.0682 292.823 12.5842 293.579 12.5842C323.081 12.5842 353.339 12.5842 382.84 12.5842C383.597 12.1002 384.353 11.6162 385.866 10.6482C401.752 10.6482 418.393 10.6482 434.279 10.6482C435.035 9.68017 435.035 9.19616 435.792 8.71215C444.113 8.71215 452.434 8.22814 460.755 8.22814L461.511 7.74414C449.408 6.77612 444.869 6.77612 435.792 9.19616C434.279 9.19616 432.766 9.19616 431.253 9.19616C429.74 8.71215 428.984 7.74414 428.227 7.26013C424.445 6.29211 423.689 8.71215 420.663 9.19616C419.15 8.71215 417.637 8.22814 414.611 7.26013C404.021 7.26013 391.918 7.26013 379.815 7.26013C379.058 7.74414 378.302 8.22814 376.789 9.19616C349.557 9.19616 320.812 9.19616 293.579 9.19616C292.067 10.1642 291.31 10.6482 290.554 11.1322C286.771 11.1322 282.989 11.6162 279.207 10.6482C279.207 9.68017 279.207 8.71215 279.207 8.22814C279.963 7.74414 279.963 7.26013 280.72 7.26013C298.118 7.26013 314.76 7.26013 331.402 7.26013C332.915 6.77612 333.671 5.8081 335.184 5.32409C335.941 5.8081 337.454 6.77612 338.21 7.26013C338.966 5.8081 339.723 5.32409 340.479 4.84009C341.236 5.32409 342.749 5.8081 344.262 6.29211C346.531 6.29211 350.313 6.29211 354.095 6.29211C355.608 6.29211 356.365 3.87207 360.147 4.35608C360.903 4.84009 362.416 5.32409 363.173 6.29211C363.929 5.8081 365.442 4.84009 366.199 4.35608C403.264 4.35608 441.087 4.35608 478.153 4.35608C479.666 3.87207 480.422 2.90405 481.179 2.42004C481.935 2.90405 482.692 3.38806 484.204 4.35608C484.961 3.87207 486.474 3.38806 487.987 2.90405C491.769 2.90405 496.308 2.90405 500.846 2.90405C501.603 3.38806 502.359 3.87207 503.872 4.35608C504.629 3.87207 506.141 3.38806 506.898 2.42004C507.654 2.90405 509.167 3.38806 509.924 4.35608C510.68 3.87207 511.437 3.38806 512.193 2.90405C512.95 2.90405 513.706 2.42004 515.219 2.42004C550.772 2.42004 586.325 2.42004 621.878 2.42004C623.391 1.93603 624.147 0.968017 624.904 0.484009C626.417 0.968017 627.173 1.93603 627.93 2.42004C631.712 3.38806 632.468 0.968017 636.251 0.484009C637.007 0.968017 639.276 1.45203 640.789 2.42004C641.546 1.93603 642.302 1.45203 643.815 0.968017C758.039 0.968017 873.019 0.968017 986.486 0.968017C987.243 1.45203 987.999 1.93603 989.512 2.90405C990.268 2.42004 991.781 1.45203 992.538 0.968017C995.564 0.968017 998.589 0.968017 1002.37 0.968017C1003.88 1.45203 1004.64 2.42004 1005.4 2.90405C1007.67 2.90405 1009.94 2.90405 1011.45 2.90405C1012.96 2.42004 1013.72 1.45203 1014.47 0.968017C1022.04 0.968017 1029.6 0.968017 1037.17 0.968017C1037.92 1.45203 1038.68 1.93603 1039.44 2.42004C1040.95 1.93603 1042.46 1.45203 1044.73 0.484009C1046.25 0.968017 1047.76 1.93603 1049.27 2.42004C1050.03 1.93603 1051.54 1.45203 1052.3 0.484009C1054.57 0.484009 1056.08 0.484009 1058.35 0.484009C1059.11 0.968017 1060.62 1.93603 1061.37 2.42004C1062.89 1.93603 1063.64 0.968017 1065.16 0C1066.67 0.484009 1068.18 0.968017 1071.21 1.93603C1071.96 1.45203 1073.48 0.968017 1075.75 0C1077.26 0.484009 1078.77 1.45203 1080.29 1.93603C1081.8 1.45203 1083.31 0.484009 1084.82 0C1086.34 0.968017 1087.85 1.45203 1089.36 2.42004C1090.88 1.93603 1091.63 0.968017 1093.15 0C1094.66 0.484009 1096.17 0.968017 1099.95 2.42004C1111.3 2.42004 1124.16 2.42004 1137.02 2.42004C1137.78 3.38806 1137.78 3.87207 1138.53 4.35608C1135.51 4.35608 1133.24 4.35608 1130.97 4.35608C1129.45 4.84009 1128.7 5.8081 1127.94 6.29211C1127.19 5.8081 1126.43 5.32409 1125.67 4.84009C1102.22 3.87207 1064.4 3.87207 1053.05 5.32409L1053.81 5.8081C1054.57 5.8081 1056.08 6.29211 1056.84 6.29211C1075.75 6.29211 1093.9 6.29211 1112.06 6.29211C1112.81 6.77612 1113.57 7.26013 1115.08 8.22814C1125.67 8.22814 1136.26 8.22814 1146.85 8.22814C1148.37 9.19616 1149.12 9.68017 1149.88 10.1642C1163.5 10.1642 1177.87 10.1642 1191.48 10.1642C1193 11.1322 1193.75 11.6162 1194.51 12.1002C1210.39 12.1002 1227.04 12.1002 1242.17 12.1002C1243.68 13.0682 1244.44 13.5522 1245.19 14.0362C1251.24 14.0362 1258.05 14.0362 1264.1 14.0362C1265.62 14.5203 1266.37 15.4883 1267.89 15.9723C1272.42 15.9723 1276.21 15.9723 1280.74 15.9723C1282.26 16.4563 1283.01 17.4243 1284.53 17.9083C1292.09 17.9083 1299.66 17.9083 1306.46 17.9083C1307.22 18.3923 1307.98 18.8763 1309.49 19.8443C1314.78 20.3284 1320.08 19.8443 1326.13 20.3284C1326.89 20.8124 1327.64 21.2964 1329.16 22.2644C1336.72 22.2644 1344.29 22.2644 1351.85 22.2644C1353.36 23.2324 1354.12 23.7164 1354.88 24.2004C1355.63 23.7164 1357.15 23.2324 1357.9 22.2644C1358.66 22.7484 1360.17 23.2324 1360.93 24.2004C1366.22 24.2004 1371.52 24.2004 1376.81 24.2004C1378.33 25.1684 1379.08 26.1365 1380.6 27.1045C1380.6 27.1045 1379.84 28.0725 1379.08 28.0725C1373.03 28.0725 1366.22 28.0725 1360.17 28.0725C1359.42 28.0725 1359.42 28.5565 1359.42 28.5565C1360.17 30.0085 1362.44 29.5245 1363.95 30.0085C1365.47 30.9765 1367.74 32.4286 1370.01 33.8806C1370.76 33.3966 1372.27 32.9126 1373.79 31.9446C1379.08 31.9446 1384.38 31.9446 1389.67 31.9446C1390.43 32.4286 1391.94 33.3966 1392.7 33.8806C1395.72 33.8806 1398.75 33.8806 1401.78 33.8806C1403.29 34.3646 1404.05 35.3326 1405.56 35.8166C1407.83 35.8166 1410.1 35.8166 1411.61 35.8166C1413.12 36.3006 1413.88 37.2687 1415.39 37.7527C1418.42 37.7527 1421.44 37.7527 1424.47 37.7527C1425.98 39.6887 1427.5 41.1407 1429.01 43.0768C1428.25 43.5608 1427.5 44.0448 1425.98 45.0128C1428.25 46.4648 1431.28 45.4968 1433.55 45.9808C1435.82 44.5288 1438.09 43.0768 1440.36 42.1087C1442.62 42.1087 1444.89 42.1087 1446.41 42.1087C1450.19 44.0448 1447.16 45.4968 1444.89 47.4328C1448.68 48.8849 1453.21 48.4008 1456.24 47.9168C1457.75 47.4328 1458.51 46.9488 1460.02 45.9808C1460.02 47.4328 1460.78 48.4008 1460.78 49.3689C1458.51 49.8529 1457 50.3369 1454.73 50.8209C1455.48 51.7889 1456.24 52.7569 1457 53.7249C1454.73 55.177 1451.7 53.7249 1449.43 54.693C1447.92 53.7249 1447.16 53.2409 1445.65 52.2729C1444.89 53.2409 1444.89 54.209 1444.14 55.177C1447.92 56.629 1451.7 57.113 1453.97 59.533C1451.7 60.0171 1450.19 60.0171 1448.68 60.9851C1447.16 61.9531 1445.65 62.9211 1443.38 62.4371C1439.6 60.9851 1442.62 59.049 1441.11 57.113C1439.6 56.145 1437.33 56.629 1435.06 56.629C1435.06 55.177 1435.06 53.2409 1435.06 51.3049C1433.55 50.8209 1432.79 50.8209 1431.28 50.3369C1427.5 51.3049 1426.74 54.209 1422.2 54.209C1418.42 54.693 1416.91 56.145 1415.39 57.597C1415.39 60.9851 1421.44 60.9851 1421.44 63.8891C1419.93 63.8891 1418.42 63.8891 1416.15 63.8891C1415.39 64.8571 1415.39 65.8252 1414.64 66.3092C1413.88 67.2772 1413.12 68.2452 1411.61 69.2132C1413.12 70.1812 1414.64 71.1493 1416.15 71.6333C1417.66 70.6652 1419.17 69.6972 1420.69 68.7292C1420.69 66.7932 1420.69 65.3411 1420.69 63.8891C1421.44 63.8891 1422.2 64.3731 1423.71 64.8571C1423.71 66.7932 1423.71 68.7292 1423.71 71.1492C1423.71 72.1173 1419.17 72.6013 1421.44 75.5053C1421.44 75.5053 1422.96 76.4733 1424.47 77.4414C1427.5 76.9574 1428.25 74.5373 1432.79 74.0533C1432.79 74.0533 1435.06 74.0533 1437.33 74.0533C1438.84 73.5693 1439.6 72.6013 1441.11 72.1173C1442.62 73.5693 1444.14 74.5373 1445.65 75.9893C1447.16 77.9254 1447.92 79.8614 1450.19 81.7974C1451.7 83.2495 1454.73 84.7015 1457 86.1535C1460.02 86.1535 1463.05 86.1535 1466.83 86.1535C1468.34 87.6055 1470.61 89.0576 1472.13 90.0256C1474.4 90.0256 1475.15 90.0256 1476.66 90.0256C1477.42 90.9936 1477.42 91.4776 1478.18 92.9296C1475.91 93.8977 1472.88 95.3497 1471.37 96.3177C1471.37 98.2537 1471.37 99.7057 1471.37 101.158C1470.61 102.126 1469.1 102.61 1468.34 103.094C1469.1 104.062 1470.61 104.546 1471.37 105.03C1472.13 106.966 1470.61 108.418 1472.88 109.87C1473.64 108.418 1475.15 106.966 1475.91 105.514C1477.42 107.45 1478.93 108.902 1480.45 110.838C1479.69 111.322 1478.93 111.806 1478.18 112.774C1478.93 113.258 1480.45 114.226 1481.2 114.71C1481.2 116.162 1481.2 117.614 1481.2 118.582C1480.45 119.066 1479.69 119.55 1478.93 119.55C1466.07 119.55 1453.21 119.55 1441.87 119.55C1440.36 120.518 1439.6 121.002 1438.09 121.486C1434.3 121.486 1429.01 121.486 1424.47 121.486C1425.23 123.906 1428.25 124.39 1429.76 126.326C1429.01 126.81 1429.01 127.294 1428.25 127.294C1419.93 127.294 1411.61 127.294 1402.53 127.294C1401.78 128.746 1400.26 130.198 1398.75 131.65C1394.21 130.198 1390.43 129.23 1386.65 127.778C1382.87 129.23 1378.33 130.198 1373.79 131.65C1372.27 129.714 1371.52 128.262 1370.76 127.294C1369.25 127.294 1368.49 127.294 1367.74 127.294C1364.71 128.746 1366.98 130.198 1366.22 132.134C1365.47 133.102 1363.95 134.07 1362.44 135.038C1360.17 135.038 1357.9 135.522 1354.88 135.522C1354.12 136.006 1353.36 136.006 1353.36 136.49C1353.36 138.91 1353.36 141.814 1353.36 144.235C1352.61 145.203 1351.09 145.687 1350.34 146.171C1351.85 147.139 1353.36 148.107 1354.88 149.075C1355.63 148.591 1357.15 147.623 1357.9 147.139C1360.17 147.139 1363.2 147.139 1365.47 147.139C1366.22 148.107 1366.98 149.075 1368.49 149.075C1370.76 149.075 1373.79 149.559 1375.3 148.107C1373.03 146.171 1369.25 147.139 1365.47 147.139C1366.98 145.687 1368.49 143.751 1370.01 141.814C1370.76 141.814 1373.03 141.33 1374.54 140.846C1374.54 139.394 1375.3 137.942 1375.3 136.006C1377.57 134.554 1380.6 135.522 1382.87 135.038C1384.38 135.522 1385.13 136.49 1386.65 136.974C1388.92 136.974 1391.19 136.974 1393.46 136.974C1394.21 137.942 1394.21 138.426 1394.97 139.878C1391.19 141.814 1387.4 143.751 1385.13 145.203C1385.13 146.655 1385.13 147.623 1385.13 148.107C1387.4 149.559 1390.43 149.075 1392.7 149.075C1394.97 149.075 1397.24 149.075 1398.75 149.075C1401.02 149.075 1404.05 149.075 1406.32 149.075C1407.07 146.171 1404.05 147.623 1401.02 145.203C1401.78 146.171 1401.02 144.719 1400.26 143.751C1400.26 143.267 1398.75 143.267 1397.99 142.783C1397.99 140.362 1397.99 137.942 1397.99 136.006C1397.24 135.522 1395.72 134.554 1394.21 133.586C1396.48 133.102 1397.99 133.102 1400.26 133.102C1401.02 134.554 1401.02 135.522 1401.02 136.49C1403.29 137.942 1406.31 139.394 1408.58 141.33C1410.1 141.33 1411.61 141.814 1413.88 141.814C1413.88 144.235 1413.88 146.655 1413.88 148.107C1416.15 149.559 1417.66 150.527 1418.42 151.495C1420.69 151.495 1422.96 151.495 1425.23 151.495C1429.01 149.559 1425.23 146.655 1427.5 144.235C1428.25 144.235 1429.01 143.751 1430.52 143.751C1430.52 145.203 1430.52 147.139 1430.52 148.591C1431.28 149.075 1432.79 150.043 1433.55 151.011C1431.28 152.463 1429.01 153.431 1425.98 154.883C1426.74 155.851 1428.25 156.819 1429.01 158.271C1429.77 159.239 1430.52 160.691 1431.28 161.659C1434.3 162.143 1435.06 162.143 1436.57 160.207C1437.33 160.207 1438.84 159.723 1438.84 159.723C1439.6 158.755 1438.09 158.271 1436.57 158.271C1436.57 156.335 1440.36 155.851 1441.11 153.915C1443.38 155.367 1445.65 156.819 1447.92 158.271C1450.19 158.271 1452.46 158.271 1454.73 158.271C1454.73 159.239 1455.48 160.691 1455.48 161.659C1446.41 162.627 1439.6 164.563 1434.3 168.435C1430.52 167.467 1428.25 166.499 1425.98 166.015C1420.69 168.435 1426.74 172.307 1422.2 174.243C1420.69 173.275 1419.17 172.307 1417.66 171.339C1419.17 169.887 1422.2 169.403 1419.93 166.499C1416.15 165.531 1411.61 166.499 1406.32 166.015C1404.8 166.983 1403.29 167.951 1401.78 168.435C1401.02 172.307 1406.31 172.791 1407.07 175.211C1406.31 175.695 1404.8 176.663 1404.05 177.631C1397.99 180.051 1393.46 174.727 1385.89 176.663C1385.89 176.663 1384.38 177.147 1382.11 178.115C1380.6 177.147 1379.08 176.663 1376.81 175.695C1373.79 175.695 1370.76 175.695 1367.74 175.695C1366.22 176.663 1364.71 177.147 1363.95 177.631C1359.42 177.631 1358.66 174.243 1354.12 176.179C1354.12 176.663 1353.36 177.631 1353.36 178.599C1354.88 179.567 1356.39 180.535 1358.66 181.503C1363.2 182.955 1366.22 180.051 1370.76 179.567C1372.27 180.535 1373.03 181.019 1374.54 181.503C1375.3 181.019 1376.81 180.051 1377.57 179.567C1382.11 179.083 1384.38 183.439 1391.19 181.019C1390.43 181.019 1391.94 180.535 1393.46 180.051C1394.97 180.535 1396.48 181.019 1398.75 181.987C1400.26 181.503 1401.78 180.535 1404.05 179.567C1404.8 180.535 1406.32 181.503 1407.83 182.471C1406.32 182.955 1404.8 183.439 1402.53 183.923C1403.29 185.375 1405.56 184.891 1407.07 185.375C1408.58 185.859 1409.34 186.343 1410.1 186.827C1410.85 186.343 1411.61 185.859 1413.12 184.891C1413.88 185.375 1415.39 185.859 1416.91 186.827C1420.69 186.827 1425.23 186.827 1432.03 186.827C1429.76 187.311 1418.42 189.247 1417.66 189.247C1419.93 190.215 1422.2 190.699 1424.47 191.183C1422.2 193.603 1417.66 191.183 1414.64 193.603C1419.93 194.571 1425.23 194.087 1430.52 194.087C1435.06 194.087 1439.6 193.603 1445.65 195.055C1438.84 196.507 1434.3 195.539 1429.76 196.023C1427.5 196.991 1425.98 197.959 1423.71 198.927C1429.76 201.348 1435.06 198.927 1440.36 200.864C1439.6 201.832 1438.84 202.316 1437.33 203.284C1439.6 203.768 1441.87 204.736 1443.38 205.22C1443.38 206.188 1443.38 206.672 1443.38 207.156C1441.11 208.124 1438.09 208.608 1434.3 210.06C1432.79 210.06 1429.01 210.06 1425.98 210.06C1424.47 210.544 1423.71 211.512 1422.2 211.996C1411.61 211.996 1401.02 211.996 1390.43 211.996C1388.92 212.48 1388.16 213.448 1386.65 213.932C1363.95 213.932 1342.02 213.932 1319.32 213.932C1318.57 214.416 1317.81 214.9 1316.3 215.868C1307.22 216.352 1297.39 215.868 1286.8 215.868C1286.04 216.352 1285.28 216.836 1283.77 217.804C1261.83 217.804 1239.14 217.804 1216.45 217.804C1214.93 218.772 1214.18 219.256 1213.42 219.74C1174.84 219.74 1136.26 219.74 1098.44 219.74C1096.93 220.708 1096.17 221.192 1095.41 221.676C979.678 221.676 862.429 221.676 746.692 221.676C745.179 222.644 744.423 223.128 743.666 223.612C709.626 223.612 675.586 223.612 641.546 223.612C640.789 223.128 639.276 222.644 638.52 221.676C637.007 222.16 635.494 223.128 633.981 224.096C631.712 223.128 630.199 222.644 628.686 221.676C526.566 221.676 424.445 221.676 321.568 221.676C320.812 221.192 320.055 220.708 318.542 219.74C301.9 219.74 284.502 219.74 267.104 219.74C265.591 218.772 264.834 218.288 264.078 217.804C258.026 217.804 251.218 217.804 245.167 217.804C243.654 216.836 242.897 216.352 242.141 215.868C234.577 215.868 227.769 215.868 219.448 215.868C217.178 213.932 214.152 211.512 211.127 209.576C205.831 209.576 201.293 209.576 196.754 209.576C192.972 207.156 195.998 206.188 198.267 204.736C198.267 203.284 198.267 202.316 198.267 200.864C202.049 198.927 204.319 195.055 210.37 195.539C209.614 193.603 207.344 192.151 205.831 191.667C202.806 191.183 201.293 190.699 201.293 188.763C201.293 187.311 198.267 186.343 196.754 185.375C190.703 184.891 192.972 187.795 189.946 189.247C189.19 188.763 187.677 188.279 186.164 187.311C183.138 187.311 180.112 187.311 177.086 187.311C175.574 187.795 174.817 189.731 171.791 189.247C171.791 188.763 171.035 187.795 171.035 187.795C168.766 187.311 168.766 188.279 168.766 189.247C166.496 189.247 165.74 189.731 165.74 190.699C165.74 192.151 165.74 193.119 168.766 193.119C168.766 193.603 169.522 194.571 169.522 194.571C174.061 194.571 177.086 198.443 183.895 196.507C183.895 196.507 186.164 195.055 187.677 194.087C186.164 193.119 185.407 192.151 183.895 191.183C186.164 190.699 187.677 190.699 188.433 190.699C192.215 192.635 188.433 195.055 189.946 197.475C190.703 198.443 192.215 199.411 192.972 200.864C189.946 200.864 186.92 200.864 185.407 200.864C179.356 204.252 188.433 205.22 186.164 208.124C182.382 209.576 182.382 209.576 178.599 207.64C177.086 208.124 175.574 208.608 173.304 209.576C171.791 209.092 169.522 208.124 166.496 207.156C164.983 207.64 163.47 208.608 161.201 209.092C160.445 208.608 159.688 207.64 159.688 207.156C160.445 205.22 162.714 203.768 165.74 203.284C166.496 204.736 165.74 206.188 168.766 204.736C168.009 204.252 167.253 203.768 165.74 203.284C167.253 200.38 162.714 198.443 161.201 195.539C160.445 194.571 159.688 193.119 158.175 191.667C157.419 191.667 155.149 191.183 153.637 190.699C152.124 189.731 150.611 189.247 148.341 189.247C145.316 187.311 142.29 185.375 139.264 183.439C138.508 183.923 136.995 184.407 136.238 184.891C133.212 185.375 129.43 185.859 126.404 183.439C123.379 183.439 120.353 183.439 116.571 183.439C115.814 183.923 114.301 184.407 112.788 185.375C111.275 184.407 110.519 183.439 108.25 181.987C108.25 181.503 108.25 180.051 108.25 178.115C105.98 177.147 103.711 176.179 101.442 175.211C101.442 173.275 101.442 171.823 101.442 169.887C98.4158 168.435 94.6336 166.499 91.6078 164.563C92.3642 163.111 93.1207 162.143 93.1207 161.175C94.6336 162.143 95.39 162.627 96.9029 163.111C97.6594 162.627 99.1723 161.659 99.9287 161.175C101.442 162.143 102.955 163.111 104.467 164.079C104.467 164.563 104.467 165.531 104.467 166.015C106.737 167.467 109.763 169.403 112.032 170.855C113.545 170.371 114.301 168.435 116.571 168.919C116.571 170.855 119.596 171.339 121.109 172.791C121.866 173.275 124.135 172.791 124.892 172.791C127.161 169.887 124.892 167.951 123.379 165.531C125.648 164.079 128.674 165.047 130.943 165.047C133.212 162.627 133.969 159.239 140.777 158.271C136.995 157.303 135.482 157.303 133.212 156.819C132.456 155.851 131.7 154.399 130.943 153.431C130.187 153.915 128.674 154.399 128.674 154.399C128.674 155.851 128.674 156.819 128.674 158.271C126.404 160.207 123.379 158.755 121.109 159.239C120.353 158.755 118.84 157.787 117.327 157.303C112.788 157.303 109.006 157.303 104.467 157.303C102.955 156.819 102.198 155.851 101.442 155.367C99.9287 155.851 99.1723 156.819 98.4158 157.303C96.1465 155.851 94.6336 153.915 92.3642 153.915C101.442 156.819 99.9287 154.883 96.9029 154.883C95.39 154.883 93.8771 154.883 91.6078 154.883C90.8513 155.367 89.3384 156.335 87.8255 156.819C87.0691 156.819 85.5562 156.819 84.7998 156.819C84.0433 156.819 82.5304 156.819 81.774 156.819C81.0175 156.819 81.0175 157.303 80.2611 157.303C77.2353 158.271 74.2095 159.239 71.1837 160.691C70.4272 160.207 69.6708 159.723 68.9143 159.239C65.8885 159.239 62.8627 159.239 60.5934 159.239C56.8112 157.787 53.7854 156.819 50.7596 155.851C53.7854 153.915 58.3241 152.463 59.837 150.043C61.3499 147.623 62.8627 146.171 65.8885 144.719C69.6708 144.235 70.4272 145.687 70.4272 147.623C71.9401 148.591 73.453 149.559 74.9659 150.527C77.9917 150.527 81.774 150.527 85.5562 150.527C86.3126 149.075 87.0691 148.107 87.8255 146.655C89.3384 147.623 90.0949 148.107 91.6078 148.591C94.6336 148.591 97.6594 148.591 101.442 148.591C102.955 147.623 104.467 146.655 105.98 145.687C103.711 145.203 102.198 144.235 99.9287 143.751C100.685 142.299 103.711 142.298 102.955 140.362C108.25 140.846 111.275 138.426 115.058 137.942C114.301 136.49 112.788 134.554 112.032 133.102C112.032 132.618 110.519 132.618 109.763 132.618C109.006 131.166 109.763 129.714 106.737 131.166C107.493 131.65 108.25 132.134 109.763 132.618C109.763 133.102 109.763 134.07 109.763 135.522C107.493 136.49 105.224 137.942 103.711 139.394C103.711 139.394 103.711 139.878 103.711 140.362C101.442 140.362 98.4158 140.362 95.39 140.362C94.6336 141.33 93.8771 142.783 93.8771 143.751C90.8513 144.719 87.8255 144.719 84.7998 143.751C85.5562 143.267 86.3127 142.298 87.8255 141.814C87.0691 140.362 84.0433 139.878 84.7998 137.942C85.5562 137.458 87.0691 136.49 87.8255 136.006C87.8255 134.554 87.8255 132.618 87.8255 131.166C88.582 131.166 90.0949 131.166 90.8513 130.682C91.6078 132.134 90.8513 133.586 93.8771 132.134C93.1207 131.65 92.3642 131.166 90.8513 130.682C92.3642 129.714 93.1207 128.746 93.8771 127.778C90.0949 125.358 86.3127 123.422 82.5304 120.518C80.2611 122.938 81.774 125.842 80.2611 127.778C79.5046 128.746 77.9917 129.714 77.9917 131.166C77.9917 132.134 78.7482 133.102 81.0175 132.618C80.2611 134.554 81.774 136.49 79.5046 138.426C78.7482 137.942 77.2353 137.458 75.7224 136.49C74.9659 136.974 73.453 137.458 72.6966 138.426C71.9401 136.974 70.4272 136.006 69.6708 134.554C67.4014 135.522 65.8885 136.006 64.3756 136.974C63.6192 135.522 64.3756 134.07 61.3499 135.522C62.1063 136.006 62.8627 136.49 64.3756 136.974ZM1343.53 146.655C1345.8 146.171 1348.82 146.171 1346.56 144.719C1345.8 145.203 1345.04 145.687 1345.8 146.171C1343.53 146.655 1340.5 146.655 1342.77 148.107C1342.77 148.107 1343.53 147.623 1343.53 146.655ZM146.829 102.126C147.585 103.578 147.585 105.03 149.854 104.062C149.098 103.578 148.341 103.094 147.585 103.578C146.829 102.126 146.829 100.674 144.559 101.642C145.316 101.642 146.072 102.126 146.829 102.126ZM1363.2 66.3092C1365.47 65.8252 1368.49 67.2772 1369.25 65.3411C1365.47 64.3731 1365.47 64.3731 1363.2 66.3092C1363.95 66.7932 1363.2 66.3092 1363.2 66.3092C1361.68 66.7932 1360.93 66.7932 1360.17 67.2772L1360.93 67.7612C1362.44 67.7612 1363.2 67.2772 1363.2 66.3092ZM125.648 105.03C124.892 103.578 124.892 102.126 122.622 103.094C123.379 103.578 124.135 104.062 125.648 104.062C125.648 105.514 125.648 107.45 125.648 108.902C128.674 109.87 131.7 110.838 134.725 111.806C134.725 109.87 134.725 108.418 134.725 106.482C133.212 105.514 131.7 104.546 130.187 103.578C127.917 104.546 126.404 104.546 125.648 105.03ZM150.611 174.727C155.906 174.243 152.124 178.115 155.906 178.599C158.175 178.115 161.201 179.083 163.47 177.631C163.47 177.147 163.47 176.179 164.227 175.695C161.957 172.791 156.662 172.307 152.124 170.371C150.611 172.307 150.611 173.275 150.611 174.727C147.585 175.695 147.585 175.695 149.098 178.599C152.124 177.631 149.854 176.179 150.611 174.727ZM184.651 96.8017C187.677 95.8337 190.703 94.3817 192.972 94.8657C196.754 94.8657 198.267 93.4136 200.536 92.9296C201.293 93.4136 202.049 93.8977 202.806 94.3817C214.909 94.3817 227.012 94.3817 239.115 94.3817C240.628 93.4136 242.141 92.4456 243.654 91.4776C242.897 90.5096 242.897 89.5416 242.141 89.0576C240.628 89.0576 239.872 89.0576 238.359 89.0576C237.602 89.5416 236.089 90.5096 234.577 90.9936C218.691 90.9936 202.806 90.9936 186.92 90.9936C185.407 92.4456 182.382 92.9296 181.625 94.8657C183.138 95.3497 183.895 95.8337 184.651 96.8017ZM158.932 98.7377C162.714 94.8657 168.009 97.2857 172.548 95.8337C174.817 94.8657 177.843 94.3817 180.112 93.4136C179.356 92.4456 179.356 91.4776 178.599 90.5096C176.33 91.4776 174.061 91.9616 172.548 92.9296C171.035 91.9616 169.522 91.4776 168.766 90.5096C165.74 90.5096 162.714 90.5096 159.688 90.5096C158.175 90.9936 157.419 91.9616 156.662 92.4456C155.149 91.9616 154.393 91.4776 153.637 90.9936C151.367 91.9616 149.854 92.4456 148.341 92.9296C146.829 91.9616 145.316 91.4776 144.559 90.9936C143.046 91.4776 141.533 92.4456 140.02 92.4456C137.751 92.9296 136.238 92.9296 133.969 92.9296C133.969 92.9296 133.969 93.4136 133.212 93.4136C134.725 94.3817 136.238 95.3497 137.751 96.3177C140.02 96.3177 142.29 96.3177 143.803 96.3177C145.316 96.8017 146.072 97.7697 146.829 98.2537C148.341 97.7697 149.098 96.8017 150.611 96.3177C152.88 96.8017 155.906 95.8337 158.932 98.7377ZM188.433 163.111C185.407 164.079 183.895 164.563 181.625 165.047C178.599 166.015 176.33 163.595 173.304 163.111C173.304 164.079 172.548 165.047 172.548 165.531C174.817 166.983 177.086 167.951 178.599 169.403C179.356 170.371 180.112 171.823 180.869 173.275C183.895 173.275 186.164 173.275 188.433 173.275C189.19 174.727 189.946 175.695 189.946 176.663C192.215 175.695 194.485 175.211 195.998 174.243C195.998 171.823 195.998 170.855 195.241 169.887C192.215 167.467 188.433 166.015 188.433 163.111ZM1384.38 84.7015C1382.11 85.1855 1379.08 84.2175 1376.06 85.6695C1377.57 87.1215 1374.54 89.0576 1377.57 90.5096C1380.6 90.5096 1383.62 90.5096 1386.65 90.5096C1388.16 90.0256 1388.92 89.0576 1389.67 88.5736C1391.19 89.0576 1391.94 90.0256 1393.46 90.5096C1395.72 90.5096 1397.99 90.5096 1399.51 90.0256C1400.26 90.0256 1400.26 89.5416 1401.02 89.0576C1397.24 87.1215 1395.72 84.2175 1390.43 83.7335C1388.92 84.7015 1388.16 85.1855 1386.65 85.6695C1386.65 85.6695 1385.13 85.1855 1384.38 84.7015ZM203.562 170.855C207.344 170.371 211.127 171.339 214.152 170.371C213.396 169.403 211.883 168.435 211.127 167.467C210.37 166.015 211.883 164.079 209.614 163.111C205.831 163.595 202.806 162.627 199.023 163.595C199.023 165.047 199.023 166.499 199.023 167.951C200.536 168.919 202.049 169.887 203.562 170.855ZM1353.36 137.942C1353.36 135.038 1348.82 137.942 1348.07 136.006C1347.31 135.038 1346.56 133.586 1346.56 132.618C1343.53 133.102 1341.26 132.134 1338.23 133.586C1338.23 135.038 1338.23 136.49 1338.99 137.942C1338.99 138.426 1339.75 138.426 1339.75 138.426C1344.29 138.426 1348.07 138.426 1352.61 138.426C1352.61 138.426 1352.61 138.426 1353.36 137.942ZM1450.19 97.7697C1450.95 98.7377 1448.68 100.19 1449.43 100.19C1454.73 98.2537 1457.75 96.8017 1460.78 95.8337C1460.02 93.8976 1461.54 91.9616 1458.51 90.5096C1456.24 90.9936 1453.21 90.0256 1450.95 91.4776C1449.43 93.4136 1451.7 94.3817 1453.97 95.8337C1451.7 96.3177 1450.95 96.8017 1450.19 97.7697ZM1355.63 52.7569C1357.15 51.7889 1359.42 50.8209 1360.17 49.3689C1357.9 48.8849 1357.15 46.4648 1354.12 46.9488C1346.56 50.3369 1346.56 51.3049 1349.58 52.7569C1351.09 52.7569 1353.36 52.7569 1355.63 52.7569ZM1410.1 90.5096C1412.37 90.5096 1414.64 90.5096 1416.91 90.5096C1417.66 90.0256 1418.42 89.0576 1419.93 88.5736C1421.44 88.0895 1423.71 89.0576 1424.47 86.6375C1419.17 86.6375 1413.12 86.6375 1407.83 86.6375C1407.07 86.6375 1407.07 87.6055 1406.32 87.6055C1407.07 88.5736 1408.58 89.5416 1410.1 90.5096ZM1320.08 138.426C1322.35 137.942 1325.38 138.91 1327.64 137.942C1327.64 136.006 1324.62 136.974 1323.11 136.49C1320.08 134.554 1317.05 132.618 1314.03 130.682H1313.27C1312.52 133.586 1312.52 133.586 1320.08 138.426ZM1434.3 89.5416C1434.3 88.5736 1433.55 87.6055 1432.79 85.1855C1430.52 87.1215 1429.01 88.0895 1427.5 89.0576C1428.25 89.5416 1439.6 93.8976 1440.36 93.8976C1441.11 93.8976 1441.87 93.4136 1443.38 92.9296C1441.87 90.9936 1436.57 90.9936 1434.3 89.5416ZM140.02 146.655C131.7 146.655 131.7 146.655 127.917 148.107C130.187 148.107 131.7 148.591 132.456 148.591C136.238 148.591 140.02 149.075 143.046 148.107C143.803 146.171 144.559 144.235 141.533 142.298C141.533 143.751 141.533 144.719 140.02 146.655ZM109.006 145.687C110.519 146.655 112.032 148.107 115.058 148.591C115.058 146.171 115.058 144.235 115.058 141.814C115.058 141.33 113.545 141.33 112.788 140.846C112.032 142.299 109.006 142.783 109.006 145.687ZM1366.98 131.65C1365.47 130.682 1363.95 129.714 1362.44 128.746C1359.42 128.746 1356.39 127.778 1354.12 129.714C1356.39 130.198 1357.9 130.198 1359.42 130.682C1360.93 131.166 1362.44 132.618 1364.71 132.134C1364.71 132.134 1366.22 132.134 1366.98 131.65ZM1379.84 53.2409C1381.35 54.209 1382.11 55.661 1385.13 56.145C1386.65 55.177 1388.16 54.209 1388.92 53.7249C1387.4 52.7569 1385.89 51.7889 1384.38 50.8209C1382.87 51.3049 1381.35 52.2729 1379.84 53.2409ZM164.227 166.499C163.47 164.563 163.47 164.079 162.714 162.627C160.445 163.111 158.932 163.111 156.662 163.111C157.419 164.563 157.419 165.531 157.419 166.499C159.688 166.499 161.201 166.499 164.227 166.499ZM463.024 7.74414C470.588 8.71215 470.588 8.71215 472.858 7.26013C470.588 6.29211 467.563 6.29211 463.024 7.74414ZM1399.51 64.8571C1401.02 63.4051 1404.05 62.4371 1404.05 60.9851C1402.53 60.0171 1400.26 60.0171 1397.99 61.4691C1398.75 62.4371 1399.51 63.4051 1399.51 64.8571ZM1350.34 128.262C1343.53 126.326 1343.53 126.81 1341.26 128.262C1342.77 128.262 1344.29 128.746 1345.8 128.746C1347.31 128.746 1348.82 128.262 1350.34 128.262ZM1373.03 173.759C1370.01 172.307 1366.22 172.307 1363.2 173.759C1366.98 175.211 1370.01 175.211 1373.03 173.759ZM183.895 182.955C186.164 181.503 186.164 180.051 184.651 178.599C183.138 178.599 181.625 179.083 180.869 179.083C181.625 180.051 183.138 181.503 183.895 182.955ZM1306.46 48.4008C1307.22 48.4008 1307.98 48.4008 1308.73 48.4008C1308.73 47.4328 1309.49 46.4648 1309.49 45.4968L1308.73 45.0128C1307.98 45.0128 1306.46 45.4968 1306.46 45.4968C1305.71 46.4648 1306.46 47.4328 1306.46 48.4008ZM1322.35 47.4328C1319.32 45.9808 1317.05 45.4968 1316.3 47.9168C1317.81 48.8849 1319.32 48.8849 1322.35 47.4328ZM1408.58 57.113C1408.58 57.597 1408.58 58.081 1408.58 58.565C1410.1 58.565 1411.61 59.049 1413.12 59.049L1413.88 58.565C1413.88 58.081 1413.12 57.113 1412.37 57.113C1411.61 56.629 1410.1 56.629 1408.58 57.113ZM1417.66 63.4051C1415.39 61.9531 1413.12 61.9531 1411.61 63.4051C1413.88 64.8571 1415.39 64.8571 1417.66 63.4051ZM1428.25 94.8657C1428.25 95.3497 1428.25 95.8337 1428.25 96.3177C1429.76 96.3177 1431.28 96.8017 1432.79 96.8017L1433.55 96.3177C1433.55 95.8337 1432.79 94.8657 1432.03 94.8657C1430.52 94.3817 1429.01 94.8657 1428.25 94.8657ZM184.651 206.672C186.92 204.736 187.677 203.768 183.895 202.8C182.382 204.252 182.382 205.22 184.651 206.672ZM229.281 166.499C227.012 167.951 227.012 169.403 229.281 170.371C231.551 169.403 231.551 167.951 229.281 166.499ZM1344.29 123.422C1346.56 124.874 1348.82 124.874 1350.34 123.422C1348.82 121.97 1346.56 121.97 1344.29 123.422ZM1421.44 121.002C1421.44 121.486 1421.44 121.97 1421.44 122.454C1422.96 122.454 1424.47 122.938 1425.98 122.938L1426.74 122.454C1426.74 121.97 1425.98 121.002 1425.23 121.002C1424.47 120.518 1422.96 121.002 1421.44 121.002ZM1296.63 45.9808C1297.39 46.4648 1297.39 46.4648 1298.14 46.4648C1298.14 45.9808 1298.9 45.4968 1298.9 45.0128L1298.14 44.5288C1297.39 45.0128 1297.39 45.4968 1296.63 45.9808ZM1425.98 45.0128C1425.23 45.0128 1424.47 45.4968 1423.71 45.4968L1424.47 45.9808C1425.23 45.9808 1425.98 45.4968 1426.74 45.4968C1427.5 45.4968 1426.74 45.0128 1425.98 45.0128ZM1343.53 50.3369C1344.29 49.8529 1344.29 49.8529 1345.04 49.8529C1344.29 49.8529 1343.53 49.3689 1342.77 49.3689L1342.02 49.8529C1342.02 49.8529 1342.77 49.8529 1343.53 50.3369ZM739.128 51.7889C739.128 51.3049 738.371 50.8209 737.615 50.3369L736.858 50.8209C736.858 51.3049 737.615 51.7889 737.615 52.2729C738.371 52.2729 738.371 52.2729 739.128 51.7889ZM1374.54 52.2729C1375.3 52.2729 1376.06 51.7889 1376.81 51.7889L1376.06 51.3049C1375.3 51.3049 1374.54 51.7889 1373.79 51.7889C1373.79 51.7889 1373.79 51.7889 1374.54 52.2729ZM1376.06 65.8252C1376.06 65.3411 1375.3 64.8571 1374.54 64.3731L1373.79 64.8571C1373.79 65.3411 1374.54 65.8252 1374.54 66.3092C1375.3 66.3092 1375.3 66.3092 1376.06 65.8252ZM403.265 77.9254C403.265 77.4414 402.508 76.9574 401.752 76.4733L400.995 76.9574C400.995 77.4414 401.752 77.9254 401.752 78.4094C402.508 78.4094 402.508 77.9254 403.265 77.9254ZM341.236 82.7655C340.479 82.7655 339.723 83.2495 338.966 83.2495L339.723 83.7335C340.479 83.7335 341.236 83.2495 341.992 83.2495C341.992 83.2495 341.992 83.2495 341.236 82.7655ZM270.13 90.5096C270.886 90.5096 271.643 90.0256 272.399 90.0256L271.642 89.5416C270.886 89.5416 270.13 90.0256 269.373 90.0256C269.373 90.0256 270.13 90.0256 270.13 90.5096ZM105.224 104.062C105.224 103.578 104.467 103.094 103.711 102.61L102.955 103.094C102.955 103.578 103.711 104.062 103.711 104.546C104.467 104.546 105.224 104.062 105.224 104.062ZM200.536 104.546L199.78 105.03C199.78 105.514 200.536 105.998 200.536 106.482L201.293 105.998C201.293 105.514 200.536 105.03 200.536 104.546ZM155.149 106.966C154.393 107.45 154.393 107.45 153.637 107.45C154.393 107.45 155.149 107.934 155.906 107.934L156.662 107.45C156.662 107.45 155.906 106.966 155.149 106.966ZM109.763 113.742C110.519 114.226 110.519 114.226 111.275 114.226C111.275 113.742 112.032 113.258 112.032 112.774L111.275 112.29C110.519 113.258 109.763 113.258 109.763 113.742ZM96.9029 118.098C97.6594 118.582 97.6594 118.582 98.4158 118.582C98.4158 118.098 99.1723 117.614 99.1723 117.13L98.4158 116.646C97.6594 117.13 96.9029 117.614 96.9029 118.098ZM1337.48 121.97C1337.48 121.486 1336.72 121.002 1335.97 120.518L1335.21 121.002C1335.21 121.486 1335.97 121.97 1335.97 122.454C1336.72 122.454 1336.72 121.97 1337.48 121.97ZM1328.4 133.586C1328.4 134.07 1329.16 134.554 1329.91 135.038L1330.67 134.554C1330.67 134.07 1329.91 133.586 1329.91 133.102C1329.91 133.102 1329.16 133.102 1328.4 133.586ZM148.341 143.267C148.341 143.751 149.098 144.235 149.854 144.719L150.611 144.235C150.611 143.751 149.854 143.267 149.854 142.783C149.098 142.783 148.341 143.267 148.341 143.267ZM1382.87 146.171C1383.62 146.655 1383.62 146.655 1384.38 146.655C1384.38 146.171 1385.13 145.687 1385.13 145.203L1384.38 144.719C1383.62 145.203 1383.62 145.687 1382.87 146.171ZM223.986 163.595C223.23 163.111 223.23 163.111 222.473 163.111C222.473 163.595 221.717 164.079 221.717 164.563L222.473 165.047C223.23 164.079 223.23 163.595 223.986 163.595ZM168.766 166.499C169.522 166.015 169.522 166.015 170.278 166.015C169.522 166.015 168.766 165.531 168.009 165.531L167.253 166.015C167.253 166.015 168.009 166.015 168.766 166.499ZM1391.94 167.467C1391.19 166.983 1391.19 166.983 1390.43 166.983C1390.43 167.467 1389.67 167.951 1389.67 168.435L1390.43 168.919C1391.19 168.435 1391.19 167.951 1391.94 167.467ZM163.47 169.887L162.714 169.403C161.958 169.403 161.201 169.887 160.445 169.887L161.201 170.371C161.957 170.371 162.714 169.887 163.47 169.887ZM205.831 181.987C206.588 182.471 206.588 182.471 207.344 182.471C207.344 181.987 208.101 181.503 208.101 181.019L207.344 180.535C206.588 181.019 205.831 181.503 205.831 181.987Z" fill="#0077FF" fill-opacity="0.29"/>
</svg>
